<!-- Generator: Adobe Illustrator 25.2.3, SVG Export Plug-In  -->
<svg version="1.1" xmlns="http://www.w3.org/2000/svg" xmlns:xlink="http://www.w3.org/1999/xlink" x="0px" y="0px"
	 width="224.41px" height="230.49px" viewBox="0 0 224.41 230.49"
	 style="overflow:visible;enable-background:new 0 0 224.41 230.49;" xml:space="preserve">
<style type="text/css">
	.st0{fill-rule:evenodd;clip-rule:evenodd;fill:#FCB351;}
	.st1{fill:#FFFFFF;}
	.st2{fill:#007D86;}
	.st3{fill:#A0B939;}
	.st4{fill:#F9F3A1;}
	.st5{fill:#FCDB2D;}
</style>
<defs>
</defs>
<path class="st0" d="M216.92,49.7c-14.51-25.24-36.31-33.57-62.97-30.62c-1.23,0.14-2.02,1.44-1.64,2.67l0,0
	c-0.22,0.11-0.43,0.2-0.65,0.29c-0.02-0.68-0.05-1.36-0.08-2.04c-0.02-0.41-0.14-0.82-0.38-1.14C123.76-17.34,65.46,6,52.96,27.16
	c-0.06,0.09-0.11,0.19-0.17,0.28c-4.49,6.05-8.99,12.12-13.5,18.19c-0.5,0.67-1.34,0.94-2.11,0.68c-1.62-0.54-3.25-1.02-4.89-1.45
	c-0.33-0.09-0.69-0.08-1.02,0.02C1.15,54.01,7.1,76.14,9.44,105.16c0.02,0.22,0.05-0.22,0,0c-3.79,16.45-19.2,33.9,0,50.27
	c0.09,0.08,0.02-0.12,0,0c-5.29,29.79,24.15,49.42,41.02,53.91c33.31,8.87,62.79,37.93,91.99,7.83c0.55-0.57,1.37-0.75,2.09-0.44
	c35.08,15.38,42.77-10.18,52.03-35.18c15.67-42.29,40.23-82.67,20.49-131.55C217.02,49.89,216.97,49.79,216.92,49.7z"/>
<g>
	<g>
		<path class="st1" d="M141.8,102.67c1.79,0.33,3.42,1.23,4.99,2.13c2.4,1.77,4.74,3.67,6.7,5.93c-1.85-0.24-3.67-0.73-5.45-1.31
			c-2.15-0.87-4.19-2.29-5.32-4.36C142.28,104.32,142.07,103.48,141.8,102.67z"/>
	</g>
	<g>
		<path class="st1" d="M76.11,127.46c1.97,0.47,3.75,1.51,5.25,2.85c-1.38,0.47-3,0.64-4.26-0.22
			C76.14,129.58,76.08,128.41,76.11,127.46z"/>
	</g>
	<g>
		<path class="st1" d="M80.84,131.9c0.31-0.1,0.61-0.2,0.91-0.3c0.32,0.17,0.64,0.35,0.98,0.49c-0.05,0.29,0.09,0.49,0.4,0.57
			c0.07,0.23,0.15,0.47,0.22,0.7c0.37,1.06,0.56,2.17,0.69,3.29c-1.35-0.02-2.69-0.25-4.04-0.25
			C80.2,134.88,80.76,133.42,80.84,131.9z"/>
	</g>
	<g>
		<path class="st1" d="M79.79,137.35c1.39,0.17,2.8,0.02,4.19,0.23c-0.33,0.7-0.63,1.41-1.01,2.09c-1.2-0.06-2.4-0.17-3.61-0.16
			C79.5,138.79,79.63,138.06,79.79,137.35z"/>
	</g>
	<g>
		<path class="st1" d="M79.18,140.17c0.98,0.35,2.03,0.37,3.05,0.45c-1.14,1.08-2.17,2.3-3.51,3.14
			C78.82,142.56,79.05,141.37,79.18,140.17z"/>
	</g>
	<g>
		<g>
			<g>
				<path class="st2" d="M131.6,81.7c0.68-0.36,1.45-0.32,2.12,0.05c0.72-0.17,1.45-0.03,2.03,0.43c0.75-0.31,1.59-0.2,2.2,0.35
					c0.68,0.63,1.72,0.66,2.34,1.38c0.56,0.45,0.45,1.28,0.91,1.8c0.34,0.44,0.67,0.89,0.75,1.46c-0.09,0.11-0.29,0.33-0.38,0.45
					c0.17,0.3,0.46,0.57,0.44,0.93c-0.07,1.07,0.53,2.09,0.17,3.14c0.47,0.34,1.07,0.65,1.21,1.26c0.14,1,0.08,2.19-0.74,2.9
					c-0.61,0.37-1.48,0.53-2.07,0.04c-0.01,1.35-0.26,2.93-1.39,3.82c-0.33,0.3-0.69,0.57-0.99,0.89c-0.94,1.09-2.17,1.9-3.13,2.97
					c-0.4,0.93-0.62,1.93-1.05,2.85c-0.61-0.33-1.07-0.83-1.39-1.44c-0.56,0.64-1,1.36-1.5,2.03c-0.28,0.39-0.84,0.24-1.24,0.36
					c0.58-1.29,1.57-2.33,2.37-3.48c-1.33-0.73-2.4-1.84-3.67-2.66c-0.97-0.7-2.01-1.4-2.61-2.47c-0.37-0.57-0.52-1.25-0.82-1.85
					c-1.09,0.09-1.73-0.85-2.35-1.59c-0.82-1.05-0.87-2.75,0.23-3.63c-0.19-0.49-0.34-1.01-0.25-1.54
					c-0.15-0.39-0.51-0.78-0.35-1.23c0.04-0.41,0.45-0.59,0.74-0.8c-0.13-0.39-0.42-0.82-0.16-1.23c0.2-0.44,0.64-0.65,1.07-0.83
					c0.13-0.7,0.47-1.33,1.16-1.61c0.31-0.74,0.89-1.32,1.72-1.44c0.54-0.77,1.45-1.1,2.35-0.81
					C129.95,81.68,130.77,81.44,131.6,81.7z M128.85,85.17c-0.48,0.64-1.17,1.09-1.67,1.71c-0.72,1.27-1.52,2.56-1.67,4.05
					c-0.22,1,0.31,1.98,0.08,2.98c-0.64-0.21-1.11-0.69-1.62-1.1c-0.36-0.15-0.64,0.18-0.92,0.34c0.74,0.55,1.68,0.97,2.03,1.89
					c-0.37,0.06-0.74,0.13-1.11,0.21c0.15,0.31,0.4,0.55,0.65,0.78c0.1-0.03,0.3-0.1,0.4-0.14c0.61,0.63,1.31,1.23,1.6,2.09
					c0.24,0.69,0.75,1.21,1.33,1.63c1.79,1.54,4.29,2.03,6.58,1.68c1.86-0.19,3.37-1.58,4.32-3.11c0.64-0.98,0.76-2.16,0.99-3.28
					c0.18,0.08,0.36,0.15,0.54,0.23c0.73-0.74,1.52-1.42,2.4-1.98c-0.39-1-1.49-0.39-2.26-0.35c-0.16-0.2-0.31-0.41-0.46-0.61
					c0.09-1.55-0.42-3.06-0.96-4.49c-0.39-1.03-1.24-1.75-2.06-2.43c-1.5-0.38-3.05-0.56-4.59-0.4
					C131.25,85.05,130.04,85.01,128.85,85.17z"/>
			</g>
		</g>
		<g>
			<path class="st3" d="M128.96,85.45c0.86-0.09,1.76-0.1,2.57,0.25c0.44,0.12,0.88,0.45,1.36,0.28c1.08-0.27,2.28-0.8,3.36-0.21
				c0.31,0.16,0.06,0.59,0.27,0.83c0.31,0.37,0.38,1.2-0.24,1.27c-1.3,0.16-2.63-0.01-3.91,0.31c-1.49-0.49-3.09-0.39-4.61-0.77
				c0.01-0.4,0.36-0.56,0.65-0.74c0.23-0.21,0.46-0.43,0.69-0.65C129.04,85.84,129,85.64,128.96,85.45z"/>
		</g>
		<g>
			<g>
				<path class="st2" d="M91.67,85.93c2.07-0.34,4.36-0.06,6.08,1.21c1.47,1,2.89,2.24,3.65,3.89c0.6,1.25,0.88,2.63,1.04,4
					c0.21,2.02-0.38,3.99-0.71,5.96c-0.4,1.95-0.36,3.96-0.25,5.94c0.04,0.96,0.47,1.82,0.82,2.69c0.58,0.5,1.25,0.93,1.65,1.6
					c0.43,0.63,0.58,1.4,0.69,2.15c0.14,1.79,0.23,3.59,0.11,5.38c0.09,2.23-0.09,4.45-0.06,6.67c-0.18,1.33-0.12,2.69-0.47,3.99
					c0.53,0.22,0.48-0.46,0.57-0.8c0.67-3.11,1.26-6.23,1.79-9.36c0.6-0.92,0.91-1.99,1.6-2.86c-1.26-0.83-2-2.32-2.04-3.81
					c-0.03-0.6,0.38-1.03,0.79-1.39c0.33-1.35-0.08-2.76,0.25-4.12c0.23-2.69,1.86-5.35,4.45-6.33c-0.35-0.77-0.71-1.84-0.01-2.53
					c0.65-0.65,1.28-1.41,2.2-1.65c1.85-0.61,4.21-0.13,5.25,1.64c0.61,0.64,0.42,1.59,0.07,2.31c-0.34-0.1-0.68-0.2-1.02-0.31
					c0.09-0.65,0.59-1.45,0.04-2.01c-0.61-0.6-1.5-0.87-2.32-1.03c-1.21,0.04-2.68,0.06-3.45,1.17c-0.57,0.6-0.63,1.48-0.12,2.13
					c2.18-0.69,4.67-0.74,6.73,0.32c1.47,0.81,2.65,2.11,3.29,3.66c0.69-0.5,1.3-1.14,2.09-1.5c1.08-0.51,2.21-0.94,3.33-1.37
					c0.33-0.2,0.63,0.05,0.9,0.24c0.18,0.5,0.42,1,0.44,1.54c0.15,2.67-0.27,5.33-0.08,8c3.15,0.18,6.31-0.04,9.45-0.22
					c0.19-3.05-0.04-6.11-0.37-9.15c-0.02-0.39,0.02-0.77,0.09-1.15c1.17,0.09,2.32,0.38,3.46,0.68c1.7,0.45,3.3,1.2,4.83,2.06
					c3.25,2.15,6.14,4.79,8.75,7.67c1.02,1.09,1.98,2.23,2.94,3.37c0.47,0.53,0.65,1.27,0.49,1.96c-0.77,3.55-2.73,6.67-4.6,9.73
					c-0.84,1.6-1.92,3.06-2.69,4.69c-0.1,0.04-0.3,0.12-0.4,0.16c-0.19,0.31-0.44,0.57-0.83,0.45c-0.91,1.29-2.38,1.94-3.44,3.07
					c0.27,0.53,0.63,1,0.99,1.48c0.28,0.22,0.1,0.63-0.18,0.74l-0.13,0.06c-0.02,0.13-0.05,0.41-0.06,0.54l0.03,0.32l-0.3-0.03
					c-0.11,0.05-0.33,0.15-0.44,0.2c-0.26,0.28-0.52,0.55-0.74,0.86c0.16,1.99,0.64,3.97,0.46,5.97c0.69,0.92,1.18,2.08,0.99,3.25
					c-1.37,1.7-2.94,3.22-4.51,4.73c-0.14-1-0.16-2.03-0.47-3.01c-0.36-0.18-0.72-0.38-1.08-0.57c-0.11,0.22,0.02,1.02-0.44,0.83
					c-0.74-0.15-0.79-1.04-1.2-1.54c-0.39-0.12-0.8-0.15-1.2-0.18c0.5,1.2,1.11,2.39,1.47,3.65c0.07,1.16,0.12,2.32,0.12,3.48
					c-0.25,0.2-0.5,0.4-0.74,0.61c-0.17-1.3-0.09-2.62-0.27-3.92c-0.49-1.33-1.1-2.62-1.63-3.94c-0.31-0.21-0.82-0.26-0.92-0.68
					c-0.35-1.09-0.84-2.18-0.78-3.35c0.17-0.36,0.46-0.63,0.72-0.93c-0.05-1.13-0.15-2.26-0.16-3.39c-0.77,0.17-1.54,0.38-2.32,0.51
					c-0.98,0.18-1.93-0.21-2.85-0.48c-0.13,1.1-0.45,2.16-0.72,3.23c-0.3,1.02,0.49,1.96,0.39,2.99c-0.09,0.84-0.13,1.8-0.83,2.38
					c-0.37,1.61-1.18,3.07-1.52,4.69c-0.17,0.85-0.48,1.66-0.64,2.5c-0.01,2.17,0.03,4.35-0.08,6.52c-1.49,0.28-2.91,0.87-4.44,0.99
					c-2.18,0.53-4.41,0.8-6.62,1.15c-0.37,0.03-0.74,0.07-1.11,0.1c0-3.22,0.03-6.45-0.25-9.66c-0.62-0.01-1.25-0.03-1.87-0.06
					c0.03,3.25,0.25,6.49,0.04,9.73c-1.57-0.03-3.14,0.05-4.71-0.07c-0.88-0.08-1.76-0.09-2.64-0.16c-0.19-3.08-0.11-6.18,0.28-9.25
					c-0.24-0.05-0.47-0.09-0.71-0.13c-0.04,1.14-0.1,2.28-0.11,3.42c-0.02,1.06,0.14,2.12-0.01,3.18c-0.12,0.87-0.09,1.76-0.06,2.63
					c-0.15-0.02-0.44-0.04-0.59-0.06c-0.08-0.01-0.26-0.03-0.34-0.04c0.05-3.14-0.14-6.28,0.09-9.41c0.2-2.82,0.33-5.65,0.38-8.47
					c0.12-1.25,0.11-2.61,0.87-3.68c0.62-0.94,1.42-1.99,2.65-2.05c0.15-0.36,0.35-0.72,0.41-1.11c-0.06-0.34-0.35-0.58-0.52-0.86
					c-1.24,0.41-2.37,1.11-3.39,1.92c-1.16,0.85-1.51,2.34-1.85,3.66c-0.17,5.2-0.39,10.41-0.44,15.61
					c0.04,1.38-0.17,2.76-0.13,4.15c-0.21-0.01-0.63-0.02-0.83-0.03c-0.54-0.89-0.23-1.94-0.15-2.91c0.21-3.16,0.05-6.33,0.3-9.49
					c-1.56,0.16-3.12,0.25-4.68,0.11c0.01,2.44,0,4.88,0.15,7.32c0,1.27-0.09,2.55-0.06,3.82c-0.16-0.02-0.5-0.06-0.66-0.08
					l-0.09-0.03c-0.37-0.91-0.17-1.91-0.25-2.86c0.03-2.36-0.12-4.71-0.09-7.07c-0.02-2.07,0.2-4.12,0.24-6.19
					c0.03-1.73,0.07-3.54,0.83-5.12c0.51-1.15,2-1.23,3.06-0.94c-0.19-0.7-0.2-1.43,0.09-2.1c-1.37,0.28-2.83,0.38-4.06,1.11
					c-0.97,0.76-1.71,1.87-1.8,3.12c-0.41,2.19-0.08,4.42-0.2,6.63c0.16,4.15,0.12,8.31,0.21,12.46c-0.21-0.02-0.64-0.05-0.85-0.06
					c-0.34-2.13-0.18-4.3-0.27-6.45c0.06-2.76-0.09-5.51-0.06-8.27c-0.06-2.36-0.23-4.95,1.16-7c-0.19-1.11-0.1-2.23-0.1-3.35
					c0.23-0.21,0.56-0.08,0.83-0.11c1.69,0.02,3.39,0.02,5.07-0.14c-0.19-0.86-0.25-1.77-0.69-2.55c-0.56-0.24-1.2-0.07-1.79-0.09
					c-2.33,0.02-4.68,0.05-6.97-0.44c0.28,2.77,0.24,5.55,0.33,8.33c0.08,2.15,0.45,4.28,0.48,6.44c-0.03,3.26,0.22,6.51,0.39,9.77
					c0.17,1.12,0.3,2.25,0.25,3.38c-0.35-0.12-0.69-0.27-1.03-0.4c-0.02-0.01-0.06-0.03-0.09-0.04c-0.89-0.4-1.81-0.73-2.71-1.11
					c0.12-1.37,0.08-2.76,0.3-4.12c0.26-1.51-0.02-3.05,0.14-4.57c0.39-4.88,0.73-9.75,0.8-14.64c-0.05-1.37,0.2-2.74,0.01-4.11
					c-1.74,0.31-3.25,1.33-4.98,1.66c-0.48,0.11-0.95-0.09-1.41-0.21c-0.08-0.24-0.15-0.47-0.22-0.7c0.05-0.33-0.09-0.52-0.4-0.57
					c-0.34-0.14-0.66-0.31-0.98-0.49c-0.31,0.1-0.61,0.2-0.91,0.3c-0.08,1.53-0.64,2.98-0.82,4.5c1.35,0,2.69,0.23,4.04,0.25
					c0.49,0.05,1.07,0.25,1.05,0.85c0.21,4.08,0.05,8.18-0.29,12.25c-0.44,0.41-0.98,1.07-1.66,0.8c-1.71-0.48-3.52-0.07-5.22-0.62
					c-0.02,0.66-0.05,1.32-0.05,1.99c-0.33-0.35-0.68-0.69-1-1.05c0.1-2.21,0.29-4.4,0.61-6.59c0.48-4.08,1.42-8.07,2.15-12.11
					c-0.87-0.12-1.76-0.3-2.51-0.78c-0.99-0.55-1.47-1.62-2.03-2.54c-0.33-0.51-0.26-1.15-0.27-1.73c0.85-3.91,1.78-7.82,2.95-11.65
					c0.39-1.67,1.01-3.28,1.71-4.85c0.52-1.05,1.32-2.06,2.47-2.42c0.74-1.02,1.44-2.1,1.68-3.36c0.18-1.19,0.41-2.4,0.26-3.61
					c-0.22-2.99-0.46-6.06,0.35-8.99c0.81-2.76,2.92-5.03,5.54-6.18C90.43,86.25,91.06,86,91.67,85.93z M89.68,87.25
					c0.67,1,1.21,2.07,1.8,3.12c1.08,1.93,2.85,3.47,4.93,4.22c0.92,0.16,1.97,0.19,2.52,1.08c-0.34-1.93-1.64-3.51-3.14-4.68
					c-0.79-0.56-2.06-1.02-2.03-2.17c2.03,1.02,3.76,2.56,5.07,4.41c0.95,1.63,1.4,3.56,1.1,5.44c-0.46,2.92-1.63,5.86-0.94,8.85
					c-0.12,0.48-0.56,0.18-0.76-0.06c-0.56-0.92-0.42-2.07-0.53-3.1c-0.53,0.61-1.22,1.04-1.89,1.48c-0.68,0.38-0.15,1.42,0.46,1.57
					c1.69,0.37,3.33,0.91,4.92,1.58c-0.93-1.49-0.77-3.35-0.86-5.03c-0.16-2.49,0.72-4.87,1.02-7.32c0.29-2.13-0.12-4.37-1.18-6.24
					c-1.11-1.6-2.73-2.96-4.69-3.33C93.57,86.54,91.59,86.98,89.68,87.25z M86.73,89.41c-0.92,1.16-1.54,2.56-1.81,4.01
					c-0.05,1.66-0.45,3.31-0.24,4.98c0.16,3.11,0.85,6.54-0.86,9.37c0.78-0.2,1.58-0.29,2.35-0.53c1.02-0.4,2.2-0.62,2.83-1.6
					c-0.48-0.65-1.05-1.25-1.51-1.92c-0.88-1.45-1.32-3.12-1.61-4.78c-0.76-3.82,0.87-7.84,3.65-10.47
					c-0.1-0.35-0.19-0.69-0.29-1.04C88.34,87.98,87.4,88.56,86.73,89.41z M90.03,89.53c-1.02,1.09-2.14,2.22-2.49,3.72
					c-0.17,0.65-0.56,1.21-0.8,1.83c1.67-0.02,3.52-0.66,5.06,0.25c0.4,0,0.78-0.17,1.17-0.28c0.17,0.03,0.52,0.09,0.69,0.12
					c0.29-0.14,0.59-0.28,0.88-0.41C92.59,93.48,91.11,91.59,90.03,89.53z M94.45,95.75c-0.23,0.96-0.41,2.28,0.59,2.86
					c0.86,0.34,2.05,0.36,2.72-0.39c0.6-0.68,0.4-1.65,0.53-2.48C97.02,95.51,95.72,95.54,94.45,95.75z M86.94,96.01
					c-0.28,0.8-0.46,1.82,0.21,2.48c0.93,0.83,2.4,1.19,3.5,0.46c0.86-0.73,1.03-1.93,0.85-2.99
					C89.98,95.84,88.45,95.76,86.94,96.01z M92.26,95.94c0.15,0.72,0.22,1.52-0.15,2.19c-0.34,0.62-0.63,1.42-1.38,1.64
					c-1.24,0.51-2.83,0.58-3.88-0.37c0.31,1.22,0.57,2.48,1.22,3.57c0.49,0.93,1.27,1.64,1.9,2.46c-0.15,0.45-0.25,0.92-0.39,1.37
					c-0.34,0.45-0.88,0.68-1.34,1.01c1.11,0.65,2.31,1.3,3.63,1.3c1.17,0.03,2.19-0.6,3.27-0.97c-0.11-0.71-0.54-1.37-0.43-2.11
					c0.18-1.11,1.43-1.44,2.07-2.24c1.12-1.08,1.22-2.7,1.75-4.08c0.3-0.82,0.38-1.7,0.45-2.56c-0.39,0.55-0.38,1.35-0.98,1.75
					c-0.89,0.71-2.25,1.14-3.27,0.44c-0.98-0.81-1.24-2.18-1.03-3.39C93.22,95.97,92.74,95.96,92.26,95.94z M111.81,101.72
					c-1.4,0.57-2.54,1.64-3.23,2.98c-0.56,1.51-0.89,3.13-0.62,4.73c-0.02,0.06-0.08,0.19-0.1,0.25c1.98-0.82,4.51-0.73,6.13,0.8
					c0.06-0.08,0.19-0.24,0.25-0.31c0.63-0.16,1.28-0.31,1.92-0.13c1.4-1.69,3.94-2.18,5.95-1.47c-0.05-0.69-0.05-1.4-0.23-2.08
					c-0.1-0.91-0.39-1.79-0.81-2.6c-0.78-1.61-2.52-2.59-4.24-2.84C115.14,100.73,113.32,100.82,111.81,101.72z M138.4,101.63
					c1.19,1.66,0.66,3.78,0.95,5.68c0.01,1.35,0.09,2.72,0.06,4.07c-0.01,0.21,0.22,0.7-0.15,0.68c-0.54-0.03-1.07-0.18-1.61-0.1
					c-2.88,0.26-5.78,0.39-8.68,0.38c-0.63-0.22-0.91-1.04-0.91-1.67c-0.1-2.66,0.13-5.32,0.05-7.99c-0.55,0.11-1.1,0.24-1.63,0.41
					c0.6,0.78,0.32,1.81,0.31,2.71c-0.24,1.75-0.16,3.52-0.27,5.27c-0.22,2.14-0.06,4.3-0.35,6.43c1.48,1.38,3.01,2.79,3.96,4.61
					c1.16-0.4,2.36-0.94,3.63-0.72c1.24,0.22,2.56,0.45,3.55,1.29c1.16,0.96,2.15,2.2,2.6,3.66c0.23,0.98,1.18,1.51,1.64,2.37
					c0.41,0.64,0.34,1.43,0.25,2.14c0.31-0.33,0.75-0.56,0.94-0.98c0.12-2.25-0.64-4.42-0.65-6.67c-0.14-4.99-0.62-9.96-1-14.94
					c-0.28-1.91-0.3-3.85-0.68-5.75C140.01,101.84,139,102.04,138.4,101.63z M141.41,102.45c0.38,2.17,0.4,4.37,0.74,6.54
					c0.39,4.98,0.96,9.95,1.04,14.94c0.07,1.86,0.53,3.69,0.56,5.56c0.33-0.1,0.66-0.19,1-0.28c0.09-1.44,0.11-2.89,0.26-4.32
					c0.09-0.48-0.14-0.92-0.24-1.38c-0.08-2,0.24-3.97,0.36-5.96c0.21-2.17,0.61-4.35,0.35-6.53c0.34,0.06,0.68,0.14,0.95,0.36
					c1.54,1.13,2.99,2.38,4.5,3.55c0.6,0.67,1.3,1.63,0.81,2.54c-0.57,2.1-1.67,4-2.59,5.96c-0.76,1.79-1.54,3.57-2.33,5.34
					c1.09,0.59,2.23,1.07,3.29,1.71c0.83-1.83,2.1-3.41,3.01-5.19c1.71-2.86,3.66-5.69,4.41-9c0.3-0.78-0.32-1.41-0.78-1.96
					c-1.09-1.18-2.1-2.43-3.2-3.59l-0.05-0.01c-1.95-2.27-4.29-4.17-6.7-5.93c-1.57-0.9-3.2-1.8-4.99-2.13
					C141.7,102.61,141.5,102.51,141.41,102.45z M124.51,103.82c-0.62,0.48-1.39,0.73-2,1.23c0.26,1.35,0.62,2.7,0.49,4.08
					c-0.11,0.76,0.72,1.06,1.19,1.47c0.13,0.59,0.26,1.2,0.16,1.81c-0.17,1.11-0.47,2.39-1.57,2.94c0.92,0.44,1.77,1.02,2.54,1.69
					c-0.07-2.38,0.1-4.76,0.24-7.14c0.07-1.37-0.01-2.75,0.16-4.12c0.1-0.79,0.12-1.59,0.07-2.39
					C125.35,103.48,124.85,103.49,124.51,103.82z M86.83,108.62c-0.55,0.94-1.03,1.93-1.48,2.93c0.3,0.26,0.6,0.53,0.91,0.79
					c0.68-0.12,1.36-0.21,2.05-0.27c-0.27-1.38-0.52-2.76-0.65-4.16C87.37,108.12,87.02,108.29,86.83,108.62z M96.03,108.32
					c-0.24,2.07-0.85,4.07-1.21,6.11c-0.39,1.68-0.59,3.43-1.32,5.02c0.25,0.28,0.31,0.64,0.32,1c-0.14,0.15-0.27,0.31-0.41,0.47
					c0.51,0.22,1.15,0.55,1.11,1.2c-0.26,0.93-1.12,1.42-1.92,1.83c0.64,0.64,0.48,1.57,0.5,2.39c1.89-0.09,3.79-0.15,5.68-0.23
					c0.57,0.03,0.63-0.68,0.7-1.09c0.55-3.61,1.51-7.18,1.54-10.84c0.08-0.07,0.24-0.22,0.31-0.29c0.42,0.67,0.68,1.45,0.57,2.24
					c-0.31,3.58-1.05,7.11-1.62,10.65c-0.2,0.27-0.51,0.47-0.86,0.42c-1.6-0.07-3.21-0.02-4.81,0.09c-1.2,0.09-2.4-0.06-3.61,0.02
					c0.07,1.46,0.02,2.92,0.04,4.38c2.82,0.84,5.8,0.33,8.69,0.54c1.09,0.05,2.21-0.18,2.96-1.02c0.64-2.28,0.96-4.64,0.96-7.01
					c0.02-3.82,0.34-7.65-0.05-11.46c-0.06-0.96-0.68-1.81-1.51-2.26c-1.29-0.56-2.58-1.11-3.95-1.44c0.19,0.93,0.67,1.76,1.02,2.64
					c0.08,0.29,0.33,0.72-0.06,0.9c-0.71,0.1-1.39,0.29-2.01,0.64c0.77,0.38,1.49,0.88,1.94,1.63c-1.32,1.27-2.07,3-3.15,4.46
					c-0.42,0.52-0.78,1.08-1.14,1.65c-0.22-0.11-0.43-0.21-0.64-0.32c0.95-2.18,2.45-4.07,3.58-6.15c-0.5-0.26-1-0.51-1.52-0.72
					c-0.12-0.36-0.34-0.76-0.14-1.14c0.7-0.43,1.48-0.73,2.26-1.02c-0.46-0.93-0.85-1.89-1.18-2.87
					C96.73,108.63,96.38,108.48,96.03,108.32z M120.05,109.05c0.3,0.58,0.73,1.16,0.6,1.84c-0.2,0.62-1.03,1.24-1.62,0.74
					c-0.71-0.52-0.42-1.51-0.36-2.24c-0.71,0.33-1.31,0.83-1.79,1.45c0.24,0.7,0.3,1.69,1.1,2c1.32,0.32,2.92,0.11,3.86-0.97
					c0.51-0.55,0.74-1.47,0.37-2.14C121.61,109.24,120.78,109.19,120.05,109.05z M81.92,109.55c-0.71,0.22-1.18,0.86-1.55,1.47
					c-0.82,1.8-1.45,3.69-1.82,5.63c-0.31,1.44-0.91,2.8-1.11,4.27c-0.26,1.54-0.93,3.04-0.83,4.63c1.57-0.96,3.31-1.56,4.94-2.39
					c-0.26-1.13-0.36-2.29-0.46-3.44c-0.12-1.4-0.41-2.77-0.47-4.18c-0.01-0.72-0.26-1.39-0.42-2.08c0.24-0.52,0.87-0.43,1.34-0.49
					c1.28-0.06,2.57-0.17,3.81-0.54c-0.33-0.25-0.61-0.54-0.85-0.87c0.44-1.03,0.96-2.02,1.47-3.01
					C84.62,108.87,83.25,109.12,81.92,109.55z M108.05,110.77c-0.45,0.88,0.07,2.13,0.98,2.52c1.08,0.63,2.47,0.67,3.6,0.18
					c0.65-0.46,0.66-1.37,0.79-2.08c-0.58-0.49-1.18-0.96-1.89-1.24c0.11,0.56,0.26,1.12,0.2,1.69c-0.1,0.46-0.54,0.69-0.9,0.93
					c-0.43-0.26-1.07-0.45-1.16-1.01c-0.16-0.65,0.2-1.24,0.45-1.8C109.42,110.17,108.63,110.3,108.05,110.77z M123.37,110.69
					c-0.34,1.16-0.59,2.33-0.78,3.52C123.52,113.38,124,111.83,123.37,110.69z M114.88,110.94c0.12,1.03,0.06,2.06,0.06,3.1
					c0.38-0.01,0.76-0.03,1.14-0.04c-0.1-1.08-0.14-2.17-0.41-3.21C115.41,110.84,115.14,110.89,114.88,110.94z M146.69,112.86
					c-0.1,0.95-0.1,1.92-0.29,2.87c-0.44,2.28-0.05,4.6-0.21,6.89c-0.19,1.69-0.11,3.39-0.36,5.07c0.98-1.98,1.8-4.04,2.72-6.04
					c0.95-1.8,1.81-3.67,2.32-5.65C149.35,115.14,148.11,113.87,146.69,112.86z M106.9,112.24c-0.28,1.21,0.51,2.4,1.35,3.2
					C107.94,114.32,107.49,113.24,106.9,112.24z M114.11,112.81c-0.4,0.75-0.93,1.5-1.75,1.81c-1.1,0.35-2.23-0.08-3.33-0.22
					c0.31,0.72,0.65,1.43,1.18,2.02c0.56,0.66,1.32,1.14,1.76,1.89c0.33,0.55,0.61,1.18,1.19,1.52c0.9,0.23,1.84,0.16,2.75,0.12
					c0.79-0.07,1.75-0.2,2.16-0.99c1.18-2.03,2.92-3.72,3.73-5.96c-0.17,0.14-0.34,0.28-0.51,0.43c-0.96,0.24-1.92,0.65-2.93,0.49
					c-0.65-0.1-1.11-0.6-1.57-1.02c0.07,0.37,0.14,0.74,0.22,1.12c1.03,0.25,2.19,1.06,1.84,2.27c-0.44-0.17-0.52-0.61-0.64-1
					c-0.63-0.24-1.26-0.52-1.93-0.59c-0.47,0.07-0.92,0.25-1.37,0.4c-0.22-0.12-0.43-0.25-0.65-0.37c-0.72,0.21-1.43,0.53-1.76,1.24
					c0.1,0.5,0.21,0.99,0.29,1.49c-0.9-0.26-1.08-1.4-0.58-2.11c0.29-0.76,1.1-0.99,1.8-1.22
					C114.01,113.69,114.05,113.25,114.11,112.81z M87.84,113.26c-1.12,0.08-2.24,0.29-3.35,0.46c-1.11,0.23-2.26-0.03-3.38,0.23
					c0.45,1.33,0.34,2.76,0.57,4.13c0.27,1.56,0.44,3.13,0.67,4.69c0.89-0.47,1.73-1.04,2.67-1.39c0.49-0.83,0.86-1.74,1.45-2.51
					c1.01-0.77,2.06-1.52,3.23-2.02c0.48-0.23,1.01-0.2,1.51-0.1c-0.23-1.22-0.36-2.47-0.58-3.69
					C89.71,113.23,88.77,113.26,87.84,113.26z M119.87,118.24c-0.08,0.7,0.08,1.4,0.02,2.1c-0.22,1.89-0.52,3.81-0.24,5.71
					c0.18,1.22,0.16,2.46,0.33,3.67c0.2,1.92,0.87,3.75,1.31,5.62c0.87-0.32,1.76-0.61,2.54-1.11c0.03-0.1,0.1-0.3,0.13-0.4
					c0.73,0.99,1.94,0.34,2.87,0.12c-0.09,0.47,0.04,1.08-0.38,1.41c-0.5,0.49-1.28,0.21-1.85-0.02l-0.05-0.23
					c-0.54,0.16-1.08,0.34-1.53,0.69c-0.92,0.69-2.01,1.09-2.97,1.71c0.57,0.86,1.04,1.8,1.13,2.84c0.74-0.11,1.47-0.3,2.18-0.53
					c0.24-1.04,0.83-1.94,1.6-2.68c-0.2-0.4-0.55-0.84-0.23-1.28c0.95,1.06,2.4,0.18,3.57,0.07c-0.54-1.1-0.92-2.3-0.98-3.53
					c-0.13-1.38,0.29-2.71,0.45-4.07c0.06-0.62,0.33-1.2,0.77-1.65c0.25,1.78-0.14,3.56-0.28,5.32c-0.03,1.34,0.33,2.7,1.08,3.83
					c0.52,0.63,1.18,1.14,1.66,1.81c0.12,0.38,0.11,0.78,0.14,1.17c0.83,0.28,1.68,0.59,2.57,0.54c0.87-0.01,1.64-0.43,2.47-0.63
					c-0.22-2.29,2.06-3.77,2.11-5.99c0.08-1.53,0.07-3.06,0.09-4.6c0.02-0.29-0.03-0.77,0.41-0.62c0.39,0.85,0.4,1.8,0.4,2.71
					c0,1.34,0.06,2.69-0.17,4.01c0.28,0.26,0.57,0.51,0.87,0.75c0.51,0.23,1.1,0.1,1.64,0.11c0.02-0.26,0.04-0.51,0.06-0.77
					c-0.83-0.45-1.52-1.28-1.31-2.29c0.68,0.88,1.82,1.47,2.89,0.88c0.1,0.42,0.2,0.87,0.04,1.29c-0.36,0.31-0.87,0.24-1.31,0.29
					c0.58,0.98,1.49,1.72,2.06,2.7c0.5,0.15,1.02,0.25,1.54,0.34c-0.64-0.91-1.32-1.86-1.5-2.97c0.75-0.04,1.05,0.9,1.49,1.38
					c0.26,0.55,0.94,0.47,1.44,0.62c-0.58-0.78-1.17-1.66-0.93-2.69c1.07-0.91,2.16-1.81,3.11-2.85c-0.91-0.43-1.77-0.99-2.73-1.31
					c-1.54,0.01-2.96,0.73-4.27,1.46c0.66,0.27,1.37,0.12,2.06,0.06c-0.21,0.51-0.35,1.07-0.76,1.47c-1.21,0.14-2.08-0.93-2.43-1.96
					c-0.18-0.75-0.26-1.52-0.54-2.25c-1.18-0.8-1.35-2.34-2.07-3.47c-0.65-0.81-1.43-1.63-2.47-1.89c-1.23-0.32-2.51-0.75-3.78-0.44
					c-1.7,0.34-3.32,1.3-4.25,2.79c-0.75,0.94-0.9,2.16-1.44,3.2c-0.49,0.87-1.55,1.08-2.33,1.58c0.49,0.22,1.02,0.24,1.54,0.11
					c0.09,0.37,0.18,0.74,0.28,1.11c-0.79,0.84-1.82-0.05-2.47-0.61c-0.25-0.66-0.94-1.29-0.46-2.01c0.54,0.01,1.12,0.07,1.58-0.28
					c-0.07-0.83-0.47-1.61-0.53-2.45c-0.44-2.76-0.53-5.92,1.4-8.17c-1.13-0.9-2.5-1.39-3.7-2.19
					C121.11,116.62,120.33,117.32,119.87,118.24z M107.67,119.73c-0.48,2.53,0.26,5.07,0.27,7.6c0.04,1.22-0.17,2.44-0.1,3.67
					c0.13,2.26,0.7,4.53,1.89,6.47c0.62,0.02,1.25,0.03,1.87,0.06c-0.36-1.73-1.14-3.33-1.42-5.08c-0.57-2.43-0.02-4.92,0.08-7.36
					c0.14-1.68,0.46-3.38,0.07-5.05c-0.27-1.17-0.23-2.54-1.17-3.42C108.43,117.52,107.99,118.62,107.67,119.73z M88.25,118.81
					c-0.37,0.26-0.87,0.36-1.11,0.78c-0.45,0.74-0.76,1.59-1.37,2.23c0.67,1.12,1.43,2.19,2.04,3.35c1.97-1.03,4.61-1.37,5.82-3.44
					c-0.55-0.05-1.11-0.09-1.66-0.13c0-0.15-0.01-0.45-0.01-0.61c0.43-0.23,0.84-0.53,1.12-0.93c-0.63,0.02-1.25,0.1-1.85,0.25
					c-0.03-0.14-0.09-0.41-0.12-0.55c0.45-0.47,1.04-0.8,1.39-1.37c-1.42-0.06-2.47,0.96-3.63,1.6c-0.06-0.19-0.17-0.58-0.22-0.77
					c0.59-0.63,1.49-0.95,1.9-1.75C89.73,117.81,88.99,118.32,88.25,118.81z M124.66,123.62c0.2,1.46,0.07,3.04,0.78,4.38
					c0.28-0.46,0.53-0.94,0.73-1.45c0.62-1.61,1.71-3.06,3.16-4.01c-0.81-1.59-2.05-2.9-3.37-4.07
					C124.98,119.98,124.4,121.82,124.66,123.62z M110.9,118.48c0.24,0.6,0.61,1.18,0.6,1.85c0.09,0.56-0.11,1.23,0.3,1.7
					c0.2,0.26,0.41,0.51,0.67,0.72c1.81,0.79,4.06,0.81,5.7-0.39c0.85-0.8,0.6-2.03,0.94-3.04c-0.84,1.86-3.13,1.97-4.89,1.96
					C112.61,121.12,111.75,119.66,110.9,118.48z M83.03,123.47c-2.18,1.05-4.45,1.95-6.47,3.31c-0.25,0.14-0.32,0.44-0.45,0.68
					c-0.03,0.95,0.03,2.13,0.99,2.63c1.26,0.86,2.88,0.69,4.26,0.22c0.12-0.01,0.37-0.04,0.5-0.05c-0.08-0.37-0.25-0.74-0.17-1.12
					c0.23-0.47,0.75-0.7,1.16-0.99c0.03-0.33-0.03-0.67,0.09-0.98c1.19-1.02,2.86-1.24,4.37-1.22c-0.66-1.21-1.35-2.41-2-3.63
					C84.51,122.63,83.77,123.06,83.03,123.47z M111.49,123.05c-0.12,2.68-0.53,5.35-0.46,8.04c0.12,1.66,0.59,3.28,1.21,4.83
					c0.17,0.42,0.28,0.87,0.34,1.32c0.08,0.08,0.23,0.23,0.31,0.31c0.36-0.02,0.73-0.04,1.09-0.05c0.22-0.24,0.4-0.53,0.72-0.63
					c1.33-0.56,2.82-0.36,4.2-0.17c0.54-0.32,1.1-0.61,1.66-0.9c-0.46-1.43-0.95-2.86-1.19-4.34c-0.39-2.01-0.38-4.06-0.6-6.09
					c-0.06-0.69-0.02-1.38,0.02-2.07c-0.26,0.14-0.53,0.25-0.81,0.34C116.1,125.17,113.16,124.65,111.49,123.05z M88.29,125.91
					c0.32,0.51,0.95,0.47,1.48,0.57c0.8-0.23,1.65-0.2,2.47-0.16c-0.06-0.67-0.11-1.34-0.15-2.01
					C90.8,124.76,89.54,125.32,88.29,125.91z M83.52,127.72c0.9-0.1,1.77-0.44,2.68-0.43c0.35,0.15,0.5,0.52,0.68,0.82
					c-1.48,0.34-3.21,0.24-4.43,1.28c0.65-0.05,1.79,0.17,1.65,1.01c-0.58,0.07-1.2,0.13-1.64,0.57c0.5,0.01,0.99-0.05,1.47-0.19
					c0.41,0.21,0.81,0.48,0.96,0.94c-0.47,0.11-0.89,0.33-1.22,0.68c2.28-0.02,4.18-1.57,6.45-1.73c0-1.19,0.06-2.39-0.13-3.57
					c-0.77-0.04-1.55-0.04-2.28-0.28C86.27,126.23,84.8,127.11,83.52,127.72z M104.17,129.54c-0.05,1.12-0.68,2.08-1.14,3.07
					c-0.32,0.88-1.44,0.74-2.2,0.88c0.11,0.9,0.31,1.79,0.5,2.68c0.21-0.15,0.46-0.27,0.58-0.51c0.8-1.29,1.61-2.59,2.27-3.96
					c0.16-0.53,0.17-1.08,0.28-1.62C104.36,129.89,104.26,129.71,104.17,129.54z M105.24,131.77c-0.52,1.26-1.02,2.54-1.78,3.68
					c1.2,0.17,2.59,0.63,3.05,1.88c-1.21-0.06-2.14-1.15-3.4-1.08c-0.82,0.14-1.62,0.38-2.37,0.74c-0.19,0.18-0.81,0.29-0.52,0.65
					c0.53,0.09,0.98-0.36,1.46-0.51c-0.27,0.82-0.55,1.63-0.9,2.41c0.74,0.29,1.59,0.32,2.2-0.25c-0.29-0.17-0.58-0.34-0.87-0.51
					c0.28-0.38,0.55-0.78,0.86-1.13c1.08-0.13,2.17,0.06,3.25-0.04c0.13,0.08,0.4,0.23,0.53,0.31c0.63-0.21,1.27-0.38,1.93-0.42
					c-0.95-1.68-1.59-3.53-1.84-5.44C106.33,131.87,105.79,131.75,105.24,131.77z M137.02,138.42c-0.09,1.52,0.11,3.05,0.37,4.55
					c0.5-0.03,1.01-0.03,1.51,0.03c0.01-1.53-0.25-3.03-0.36-4.55c0.92,0.62,2,0.96,2.87,1.66c-0.09-0.93,0.04-1.95-0.41-2.8
					c-0.66-0.75-1.67-1.08-2.41-1.74C138.1,136.54,137.28,137.35,137.02,138.42z M141.73,135.79c-0.13,0.28-0.26,0.56-0.39,0.84
					c0.34,0.38,0.82,0.73,0.89,1.28c0.13,0.86,0.2,1.72,0.3,2.58c0.37,0.3,0.74,0.6,1.11,0.91c-0.11-1.08-0.13-2.17-0.29-3.24
					C142.57,137.55,142.12,136.68,141.73,135.79z M125.82,137.76c-1.52,1.06-1.85,2.99-2.01,4.7c0.83-1.21,1.93-2.18,3.02-3.15
					c0.49-0.37,1.02-0.92,1.69-0.78c0.46,1.5,0.28,3.1-0.27,4.56c0.46,0.08,0.92,0.17,1.39,0.27c0.12-1.83,0.71-3.65,0.47-5.5
					c-0.41-0.34-0.79-0.69-1.17-1.05C128.03,137.41,126.9,137.66,125.82,137.76z M95.15,137.27c0.01,0.56,0.03,1.11,0.03,1.67
					c1.03-1.05,2.51-1.29,3.92-1.35c0.17-0.27,0.34-0.53,0.51-0.8C98.12,136.94,96.65,137.19,95.15,137.27z M114.71,137.54
					c0.44,0.57,1,1.15,1,1.92c-0.04,0.86-0.7,1.5-1.33,2c0.44-0.04,1.09,0.3,1.36-0.19c0.29-0.43,0.45-0.96,0.83-1.33
					c0.43-0.07,0.29,0.47,0.41,0.72c-0.21,0.46-0.39,0.93-0.55,1.41c1.01,0.2,1.67-0.68,2.14-1.42l0.22,0.01
					c0.25,0.59-0.29,1.06-0.54,1.53c0.92-0.49,1.68-1.32,1.92-2.35c0-0.7-0.19-1.49-0.84-1.86
					C117.97,136.95,116.23,137.41,114.71,137.54z M79.79,137.35c-0.17,0.72-0.3,1.44-0.43,2.16c1.21-0.01,2.4,0.09,3.61,0.16
					c0.52,0.01,1.03,0.03,1.55,0.05c0-0.75,0.01-1.49,0.06-2.24c-0.15,0.02-0.45,0.07-0.6,0.09
					C82.59,137.37,81.19,137.52,79.79,137.35z M124.9,142.7c-0.84,1.07-1.55,2.24-2.26,3.41c1.54-1.06,2.75-2.81,4.73-3.07
					c0.29-1.09,0.31-2.23,0.45-3.35C126.62,140.44,125.66,141.51,124.9,142.7z M139.42,140.02c0.22,1.1,0.4,2.22,0.41,3.35
					c0.97,1.37,2.9,1.25,4.11,2.31c0.25,0.21,0.29,0.47,0.13,0.77c-0.85-0.11-1.63-0.5-2.45-0.73c0.24,0.96,0.11,1.95-0.11,2.9
					c0.93,0.62,2.06,0.76,3.15,0.68c0.73-0.07,1.4-0.6,1.54-1.34c0.39-1.01-0.15-2.04-0.76-2.84
					C143.85,143.02,141.83,141.15,139.42,140.02z M121.35,141.66c0.55,0.34,1.07,0.75,1.47,1.26c0.01-0.79,0.12-1.58,0.34-2.35
					C122.57,140.97,121.89,141.21,121.35,141.66z M101.57,140.74c-0.12,0.07-0.35,0.23-0.47,0.3c-0.18-0.01-0.54-0.03-0.73-0.05
					c0.15,0.37,0.34,0.99,0.87,0.76c0.48-0.28,0.84-0.74,1.39-0.9c-0.11,0.41-0.23,0.82-0.32,1.25c0.57-0.57,0.82-1.38,1.23-2.06
					C102.97,140.49,102.34,140.94,101.57,140.74z M79.18,140.17c-0.13,1.2-0.37,2.38-0.47,3.58l-0.13-0.19
					c0.01,1.89-0.53,3.74-0.6,5.63c1.89,0.07,3.76,0.19,5.64,0.41c0.16-0.38,0.39-0.74,0.45-1.15c0.27-2.61,0.35-5.23,0.38-7.85
					c-0.74,0.07-1.54-0.25-2.23,0.01C81.21,140.55,80.16,140.53,79.18,140.17z M105.95,145.18c0.03,1.11-0.11,2.22-0.07,3.33
					c0.42-0.01,0.84-0.01,1.27-0.02c0.34-1.23,0.49-2.51,0.78-3.76c0.25-1.2,0.71-2.37,0.66-3.61
					C106.96,141.73,105.74,143.42,105.95,145.18z M109.32,141.16c0.1,0.44,0.26,0.88,0.23,1.34c-0.24,1.8-0.97,3.53-1.01,5.36
					c1.17,0.33,2.37,0.5,3.59,0.46c0-1.53-0.08-3.06-0.1-4.59c-0.03-0.84-0.25-1.76-0.89-2.34
					C110.54,141.26,109.93,141.23,109.32,141.16z M98.04,141.73c-0.75,2.18-0.47,4.53-0.71,6.8c1.57-0.01,3.14,0.26,4.7,0
					c0.05-1.73,0.01-3.46,0.22-5.18c-0.25-0.25-0.5-0.5-0.75-0.75c-0.36-0.05-0.72-0.1-1.09-0.14c-0.22-0.42-0.41-0.86-0.58-1.31
					C99.27,141.43,98.5,141.35,98.04,141.73z M112.35,141.48c0.97,1.4,0.72,3.2,0.77,4.8c-0.03,1.87,0.22,3.74,0.03,5.6
					c0.61-0.03,1.22-0.05,1.83-0.05c-0.09-0.76-0.13-1.53-0.11-2.29c0.06-1.95-0.18-3.88-0.29-5.82c0-0.79-0.39-1.47-0.76-2.14
					C113.34,141.56,112.84,141.53,112.35,141.48z M118.91,143.02c-0.43,0.23-0.89-0.02-1.31-0.13c-0.71,0.1-1.35-0.2-2.01-0.38
					c-0.14,1.03,0.14,2.09,0.11,3.14c1.59-0.01,3.17,0.16,4.76,0.17c-0.03-1.11-0.06-2.22-0.05-3.33c-0.1-0.08-0.29-0.25-0.39-0.34
					C119.66,142.45,119.32,142.78,118.91,143.02z M121.4,142.64c0,1.08-0.01,2.15,0,3.23c0.34-0.52,0.73-1,1.04-1.53
					C122.34,143.65,121.97,143.03,121.4,142.64z M136.1,144.66c1.01,0.08,2.49-0.82,3.13,0.33c-0.95,0.04-1.99-0.08-2.84,0.43
					c-0.31,0.25,0.06,0.63,0.36,0.56c0.61-0.13,1.22-0.32,1.84-0.18c0.31-0.01,0.56,0.34,0.31,0.58c-0.69,0.25-1.66-0.01-2.07,0.77
					c0.96,0.22,1.95,0.34,2.92,0.53c0.25,0.11,0.5,0.21,0.75,0.32c0.29-1.03,0.32-2.12-0.26-3.06c0.03-0.1,0.1-0.3,0.13-0.4
					c-0.33-0.21-0.65-0.47-1.04-0.54C138.22,143.75,136.86,143.61,136.1,144.66z M126.09,144.43c-0.47,1.01-0.4,2.26,0.27,3.17
					c0.71,0.3,1.54,0.02,2.29,0.21c0.36,0.08,1.11,0.26,0.97-0.38c-0.76-0.55-1.73-0.52-2.62-0.62c0.07-0.11,0.21-0.32,0.28-0.43
					c0.85-0.24,1.74-0.04,2.53,0.33c0.25-0.3,0.25-0.71-0.05-0.98c-0.79-0.26-1.62-0.31-2.43-0.45c0.04-0.1,0.12-0.29,0.15-0.39
					c0.74-0.38,1.63-0.16,2.4-0.02c-0.15-0.33-0.24-0.8-0.68-0.84C128.15,143.72,127.03,143.83,126.09,144.43z M121.77,147.55
					c-0.2,0.71-0.58,1.47-0.34,2.22c0.31,0.58,1.11,0.52,1.67,0.41c1.08-0.31,1.94-1.08,2.84-1.71c-0.6-1.05-1.23-2.21-0.9-3.46
					C123.9,145.79,123.05,146.98,121.77,147.55z M127.08,151.16c-0.31,0.3-0.61-0.19-0.85-0.33c0.16-0.48,0.17-0.98-0.02-1.46
					c-0.39,0.26-0.76,0.55-1.06,0.91c-0.52,0.66-1.33,0.97-2.05,1.36c-0.13,1.58-0.51,3.22,0.03,4.77c0.97,0.86,2.4,0.68,3.61,0.67
					c0-0.72-0.02-1.44-0.03-2.17c0.49-0.53,0.59-1.27,0.79-1.93c0.44-1.42,0.99-2.81,1.45-4.23c-0.44-0.01-0.87-0.03-1.3-0.02
					C127.24,149.49,127.46,150.4,127.08,151.16z M105.84,149.19c0.01,0.42,0.02,0.84,0.04,1.26c1.29,0.15,2.58-0.13,3.88-0.09
					c0.78,0.02,1.56-0.07,2.34-0.21c0.01-0.33,0.02-0.66,0.03-0.99C110.04,149.29,107.93,149.39,105.84,149.19z M97.28,149.33
					c-0.02,0.34-0.04,0.68-0.07,1.03c1.55,0.11,3.1,0.16,4.65,0.18c0.02-0.39,0.04-0.77,0.06-1.16
					C100.38,149.27,98.83,149.12,97.28,149.33z M105.8,151.34c-0.19,0.57,0.19,0.69,0.68,0.71c0.01-0.17,0.05-0.51,0.06-0.67
					C106.36,151.37,105.99,151.35,105.8,151.34z M113.26,152.62c-2.5,0.25-5-0.21-7.5,0.08c-0.01,0.38-0.02,0.76-0.03,1.15
					c1.23-0.25,2.48,0.02,3.72,0.02c1.98,0.02,3.97,0.08,5.95-0.09c2.14-0.03,4.28-0.03,6.42-0.16c0.02-0.29,0.04-0.58,0.06-0.87
					c-1.37-0.09-2.73-0.32-4.11-0.22C116.27,152.63,114.76,152.5,113.26,152.62z"/>
			</g>
		</g>
		<g>
			<path class="st2" d="M134.27,89.1c0.05-0.63,0.82-0.75,1.31-0.91c0.92-0.25,1.75,0.32,2.27,1.02c-0.06,0.1-0.18,0.3-0.24,0.4
				C136.54,89.19,135.37,89.36,134.27,89.1z"/>
		</g>
		<g>
			<path class="st2" d="M127.49,89.93c0.34-1.26,1.79-1.83,2.96-1.38c0.64,0.29,1.43,0.73,1.41,1.54c-0.74,0.07-1.31-0.48-1.99-0.63
				C129.12,89.8,128.33,90.19,127.49,89.93z"/>
		</g>
		<g>
			<path class="st2" d="M131.92,90.29c0.42,0.25,0.6,0.73,0.5,1.21c-0.16,1.09-0.47,2.14-0.59,3.24c0.6,0.06,1.19,0.06,1.79,0.01
				c-0.09-1.31-0.47-2.59-0.43-3.92c0.32-0.1,0.64-0.2,0.97-0.3c0.74,1.42,1.01,3.05,0.8,4.63c-0.83,0.29-1.65,0.78-2.57,0.65
				c-0.69,0-1.51-0.59-1.31-1.36C131.38,93.08,131.78,91.71,131.92,90.29z"/>
		</g>
		<g>
			<path class="st2" d="M135.17,90.63c0.38-0.22,0.88-0.28,1.2,0.08c0.47,0.34,0.25,0.98,0.25,1.46c-0.45-0.03-1.04,0.03-1.28-0.45
				C135.1,91.42,135.2,91,135.17,90.63z"/>
		</g>
		<g>
			<path class="st2" d="M128.85,92.05c-0.03-0.54-0.14-1.27,0.48-1.52c0.49-0.04,1.03,0.19,1.25,0.65
				c-0.04,0.29-0.13,0.57-0.27,0.84C129.88,92.4,129.32,92.14,128.85,92.05z"/>
		</g>
		<g>
			<path class="st2" d="M138.12,92.38c0.47,0.27,0.92,0.58,1.35,0.91c-0.5,1.04-0.84,2.18-1.57,3.09c-0.49-0.36-1.08-0.56-1.57-0.93
				c-0.21-0.51,0.14-1,0.3-1.47c0.24-0.51,0.36-1.11,0.8-1.49c0.07,0.34,0.15,0.68,0.22,1.01
				C137.81,93.13,137.97,92.76,138.12,92.38z"/>
		</g>
		<g>
			<path class="st2" d="M127.17,93.57c0.29-0.17,0.59-0.33,0.89-0.5c0.76,0.96,1.63,1.94,1.82,3.19c-0.29,0.49-0.6,0.97-0.82,1.5
				c-0.16,0.02-0.48,0.06-0.64,0.09c-1.04-0.75-1.74-1.87-2.27-3.01c0.13-0.03,0.38-0.08,0.51-0.11c-0.06-0.24-0.12-0.47-0.17-0.7
				c0.63,0.04,0.86,0.73,1.28,1.1C127.59,94.6,127.39,94.09,127.17,93.57z"/>
		</g>
		<g>
			<path class="st2" d="M130.72,96.76c1.47-0.37,3.04-0.46,4.52-0.1c-0.42,0.93-1.53,1.21-2.47,1.23
				C131.93,97.88,131.3,97.29,130.72,96.76z"/>
		</g>
		<g>
			<path class="st2" d="M95.37,96.26c0.58-0.17,1.39,0.01,1.46,0.71c0.07,0.41-0.52,0.39-0.75,0.57
				C95.73,97.18,95.33,96.81,95.37,96.26z"/>
		</g>
		<g>
			<path class="st2" d="M88.79,96.28c0.5-0.37,0.99,0.18,1.34,0.5c0.21,0.57-0.52,0.64-0.89,0.77
				C88.74,97.37,88.35,96.72,88.79,96.28z"/>
		</g>
		<g>
			<path class="st2" d="M92.69,97.06c0.23,0.22,0.55,0.41,0.57,0.76c0.09,0.9,0.27,1.79,0.34,2.69c-0.3,0.73-0.94-0.02-0.98-0.47
				C92.61,99.05,92.64,98.05,92.69,97.06z"/>
		</g>
		<g>
			<path class="st2" d="M130.9,98.08c0.45,0.04,0.87,0.22,1.29,0.37c0.78,0.23,1.61,0.05,2.36-0.22c0.04,0.19,0.11,0.57,0.15,0.76
				c-0.4,0.98-1.56,1.11-2.44,0.74C131.48,99.57,131.07,98.79,130.9,98.08z"/>
		</g>
		<g>
			<path class="st2" d="M94,101.56c0.52-0.21,0.83,0.74,0.51,1.01c-0.97,0.45-2.17,0.47-3.1-0.1c-0.29-0.18-0.7-0.38-0.67-0.78
				c0.37-0.18,0.74,0.02,1.11,0.09C92.57,101.99,93.3,101.74,94,101.56z"/>
		</g>
		<g>
			<path class="st2" d="M112.95,102.13c0.65,0.9,1.06,2,0.98,3.12c-0.06,0.32-0.13,0.64-0.2,0.96c-0.15-0.03-0.46-0.1-0.61-0.13
				c-0.1-0.2-0.2-0.39-0.29-0.58C112.9,104.38,112.84,103.25,112.95,102.13z"/>
		</g>
		<g>
			<path class="st2" d="M114.57,102.16c0.92,0.62,1.41,1.77,1.38,2.86c-0.02,0.22-0.07,0.66-0.09,0.88
				c-0.39-0.16-0.72-0.41-0.96-0.76C114.97,104.13,114.71,103.14,114.57,102.16z"/>
		</g>
		<g>
			<path class="st2" d="M116.25,102.39c0.82,0.65,1.35,1.64,1.5,2.66c-0.02,0.22-0.08,0.65-0.1,0.87c-0.54-0.04-0.89-0.39-0.9-0.93
				C116.6,104.13,116.33,103.28,116.25,102.39z"/>
		</g>
		<g>
			<path class="st2" d="M118.01,103c0.07-0.04,0.22-0.13,0.3-0.17c0.67,0.74,1.15,1.63,1.44,2.59c-0.08,0.24-0.16,0.47-0.25,0.7
				c-0.55-0.02-0.72-0.53-0.84-0.97C118.45,104.43,118.18,103.73,118.01,103z"/>
		</g>
		<g>
			<path class="st2" d="M110.61,106.25c-0.06-1.2,0-2.47,0.65-3.52c0.31,1.03,0.24,2.12,0.28,3.18c-0.01,0.37-0.03,0.73-0.06,1.1
				C111.14,106.81,110.82,106.58,110.61,106.25z"/>
		</g>
		<g>
			<path class="st2" d="M135.13,103.94c1.11,0.98,2.32,1.92,3.17,3.15c-0.02,0.09-0.04,0.27-0.06,0.36c-0.1,0.11-0.3,0.35-0.4,0.46
				c-0.89-0.72-1.53-1.7-2.35-2.48C135.07,105.07,134.91,104.46,135.13,103.94z"/>
		</g>
		<g>
			<path class="st2" d="M119.76,103.81c0.66,0.66,1.51,1.37,1.45,2.4c-0.44,0.6-0.93-0.06-1.04-0.52
				C119.94,105.08,119.81,104.45,119.76,103.81z"/>
		</g>
		<g>
			<path class="st2" d="M108.76,107.8c0.05-1.16-0.03-2.7,1.02-3.44c0.24,0.77,0.31,1.59,0.07,2.37c-0.17,0.49-0.16,1.2-0.72,1.43
				C109.04,108.06,108.85,107.89,108.76,107.8z"/>
		</g>
		<g>
			<path class="st2" d="M115.75,116.33c0.67-0.1,1.03-0.74,1.56-1.08c0.05,1.02-0.74,1.94-1.75,2.06c-1.02,0.25-1.64-0.96-1.98-1.73
				C114.25,115.93,114.92,116.66,115.75,116.33z"/>
		</g>
		<g>
			<path class="st2" d="M113.49,117.41c0.55,0.31,0.55,1.28,1.28,1.27c0.91,0.08,1.6-0.53,2.22-1.1c0.01,0.93-0.7,1.64-1.54,1.92
				C114.3,119.64,113.44,118.48,113.49,117.41z"/>
		</g>
		<g>
			<path class="st2" d="M131.18,123.5c0.64,0.83,0.96,1.85,1.45,2.77c0.36,0.58,1.11,0.64,1.69,0.88c-0.55-0.81-1.07-1.66-1.24-2.64
				c0.07-0.03,0.21-0.08,0.29-0.11c0.63,0.75,1.1,1.65,1.91,2.24c0.52,0.41,1.16,0.61,1.78,0.8c-0.18,0.34-0.27,0.89-0.76,0.88
				c-0.66-0.11-1.18-0.59-1.72-0.94c-0.04,0.16-0.12,0.48-0.16,0.65c-0.7,0.47-1.4-0.13-1.95-0.54c-0.54-0.43-0.7-1.16-1.18-1.64
				c-0.37,0.76-0.51,1.63-0.98,2.34c-0.13-0.13-0.39-0.4-0.52-0.54C129.81,126.14,130.7,124.88,131.18,123.5z"/>
		</g>
		<g>
			<path class="st2" d="M135.73,124.79c0.62,0.17,0.9,0.81,1.36,1.19c0.43,0.42,1.21,0.71,1.07,1.45c-0.64,0.41-1.18-0.29-1.58-0.7
				C136.04,126.23,135.84,125.5,135.73,124.79z"/>
		</g>
		<g>
			<path class="st2" d="M130.05,130.18c-0.14-0.71,0.15-1.33,0.78-1.68c0.47,0.39,0.89,0.82,1.29,1.29
				c-0.21,0.39-0.38,0.97-0.92,0.99C130.7,130.9,130.4,130.43,130.05,130.18z"/>
		</g>
		<g>
			<path class="st2" d="M135.84,129c0.39-0.42,1.05-0.31,1.56-0.21c0.03,0.19,0.09,0.56,0.11,0.75c-0.25,0.35-0.46,1.01-1.01,0.81
				C135.91,130.24,135.63,129.53,135.84,129z"/>
		</g>
		<g>
			<path class="st2" d="M133.11,128.89c0.13,0.01,0.39,0.05,0.52,0.06c0.04,0.79-0.37,1.53-0.25,2.32c0.33,0.04,0.72,0.26,1-0.04
				c0.3-0.67-0.23-1.6,0.45-2.09c0.08,0.56,0.17,1.12,0.25,1.69c0.16,0.77-0.65,1.55-1.41,1.29c-0.39-0.29-0.72-0.68-0.92-1.12
				C132.77,130.28,133.03,129.6,133.11,128.89z"/>
		</g>
		<g>
			<path class="st2" d="M123.88,133.15c-0.28-0.43-0.35-0.93-0.2-1.41c0.54,0.84,1.57,0.83,2.46,0.82
				c-0.13,0.37-0.02,0.88-0.33,1.17C125.1,133.95,124.44,133.53,123.88,133.15z"/>
		</g>
		<g>
			<path class="st2" d="M130.85,132.43c0.53,0.16,0.98,0.5,1.47,0.77c1.2,0.41,2.36-0.21,3.54-0.36c-0.42,0.84-1.37,1.05-2.19,1.25
				C132.5,134.35,131.05,133.69,130.85,132.43z"/>
		</g>
	</g>
	<g>
		<g>
			<g>
				<path class="st3" d="M128.85,85.17c1.19-0.16,2.4-0.13,3.59-0.28c1.54-0.16,3.09,0.02,4.59,0.4c0.82,0.68,1.68,1.4,2.06,2.43
					c0.55,1.43,1.05,2.93,0.96,4.49c0.15,0.2,0.3,0.41,0.46,0.61c0.77-0.03,1.87-0.64,2.26,0.35c-0.88,0.56-1.67,1.24-2.4,1.98
					c-0.18-0.08-0.37-0.16-0.54-0.23c-0.22,1.12-0.35,2.3-0.99,3.28c-0.95,1.53-2.46,2.92-4.32,3.11c-2.3,0.35-4.8-0.14-6.58-1.68
					c-0.58-0.41-1.09-0.94-1.33-1.63c-0.29-0.86-0.99-1.46-1.6-2.09c-0.1,0.03-0.3,0.1-0.4,0.14c-0.25-0.24-0.5-0.48-0.65-0.78
					c0.37-0.08,0.74-0.15,1.11-0.21c-0.35-0.92-1.29-1.34-2.03-1.89c0.28-0.16,0.56-0.48,0.92-0.34c0.51,0.41,0.99,0.89,1.62,1.1
					c0.23-1-0.29-1.98-0.08-2.98c0.15-1.49,0.95-2.78,1.67-4.05C127.68,86.26,128.37,85.82,128.85,85.17z M128.96,85.45
					c0.04,0.19,0.08,0.39,0.13,0.58c-0.22,0.22-0.45,0.44-0.69,0.65c-0.3,0.18-0.64,0.34-0.65,0.74c1.52,0.38,3.12,0.28,4.61,0.77
					c1.28-0.33,2.61-0.15,3.91-0.31c0.62-0.07,0.55-0.9,0.24-1.27c-0.21-0.24,0.05-0.67-0.27-0.83c-1.07-0.59-2.27-0.06-3.36,0.21
					c-0.48,0.17-0.92-0.16-1.36-0.28C130.71,85.36,129.82,85.37,128.96,85.45z M134.27,89.1c1.1,0.26,2.27,0.09,3.34,0.51
					c0.06-0.1,0.18-0.3,0.24-0.4c-0.52-0.7-1.36-1.27-2.27-1.02C135.09,88.35,134.31,88.46,134.27,89.1z M127.49,89.93
					c0.84,0.27,1.63-0.13,2.38-0.46c0.68,0.15,1.25,0.7,1.99,0.63c0.02-0.81-0.77-1.25-1.41-1.54
					C129.28,88.1,127.83,88.66,127.49,89.93z M131.92,90.29c-0.14,1.42-0.54,2.79-0.85,4.17c-0.2,0.77,0.62,1.36,1.31,1.36
					c0.92,0.13,1.73-0.37,2.57-0.65c0.22-1.58-0.06-3.22-0.8-4.63c-0.32,0.1-0.64,0.2-0.97,0.3c-0.03,1.32,0.34,2.6,0.43,3.92
					c-0.6,0.04-1.19,0.04-1.79-0.01c0.12-1.09,0.43-2.15,0.59-3.24C132.52,91.03,132.34,90.54,131.92,90.29z M135.17,90.63
					c0.02,0.37-0.07,0.78,0.18,1.09c0.24,0.47,0.83,0.42,1.28,0.45c0-0.48,0.22-1.12-0.25-1.46
					C136.05,90.36,135.56,90.41,135.17,90.63z M128.85,92.05c0.48,0.1,1.04,0.35,1.47-0.03c0.13-0.27,0.22-0.55,0.27-0.84
					c-0.23-0.46-0.76-0.7-1.25-0.65C128.71,90.78,128.81,91.51,128.85,92.05z M138.12,92.38c-0.15,0.38-0.31,0.76-0.48,1.13
					c-0.07-0.34-0.15-0.68-0.22-1.01c-0.44,0.38-0.56,0.98-0.8,1.49c-0.15,0.47-0.51,0.96-0.3,1.47c0.48,0.37,1.07,0.57,1.57,0.93
					c0.74-0.91,1.07-2.05,1.57-3.09C139.05,92.96,138.6,92.64,138.12,92.38z M127.17,93.57c0.21,0.51,0.42,1.03,0.59,1.55
					c-0.42-0.37-0.66-1.06-1.28-1.1c0.06,0.24,0.11,0.47,0.17,0.7c-0.13,0.03-0.38,0.08-0.51,0.11c0.53,1.15,1.23,2.26,2.27,3.01
					c0.16-0.02,0.48-0.07,0.64-0.09c0.22-0.53,0.53-1.01,0.82-1.5c-0.19-1.25-1.06-2.23-1.82-3.19
					C127.76,93.24,127.47,93.41,127.17,93.57z M130.72,96.76c0.58,0.53,1.22,1.12,2.06,1.13c0.93-0.01,2.05-0.29,2.47-1.23
					C133.76,96.3,132.18,96.4,130.72,96.76z M130.9,98.08c0.17,0.71,0.58,1.49,1.36,1.65c0.88,0.38,2.04,0.24,2.44-0.74
					c-0.04-0.19-0.11-0.57-0.15-0.76c-0.75,0.26-1.57,0.45-2.36,0.22C131.77,98.3,131.35,98.11,130.9,98.08z"/>
			</g>
		</g>
		<g>
			<path class="st3" d="M89.68,87.25c1.91-0.27,3.89-0.71,5.8-0.18c1.95,0.37,3.58,1.72,4.69,3.33c1.06,1.87,1.47,4.11,1.18,6.24
				c-0.29,2.45-1.17,4.82-1.02,7.32c0.09,1.68-0.07,3.54,0.86,5.03c-1.59-0.66-3.24-1.21-4.92-1.58c-0.61-0.15-1.14-1.19-0.46-1.57
				c0.67-0.44,1.36-0.87,1.89-1.48c0.11,1.03-0.03,2.18,0.53,3.1c0.2,0.24,0.64,0.54,0.76,0.06c-0.69-2.99,0.48-5.93,0.94-8.85
				c0.3-1.88-0.14-3.81-1.1-5.44c-1.31-1.85-3.04-3.39-5.07-4.41c-0.03,1.15,1.23,1.61,2.03,2.17c1.5,1.17,2.8,2.75,3.14,4.68
				c-0.54-0.89-1.6-0.91-2.52-1.08c-2.08-0.75-3.85-2.29-4.93-4.22C90.89,89.32,90.34,88.25,89.68,87.25z"/>
		</g>
		<g>
			<path class="st3" d="M86.73,89.41c0.68-0.85,1.61-1.43,2.53-1.98c0.09,0.34,0.19,0.69,0.29,1.04c-2.78,2.63-4.41,6.65-3.65,10.47
				c0.29,1.66,0.73,3.32,1.61,4.78c0.45,0.67,1.02,1.26,1.51,1.92c-0.64,0.99-1.82,1.21-2.83,1.6c-0.77,0.24-1.57,0.33-2.35,0.53
				c1.71-2.83,1.03-6.25,0.86-9.37c-0.21-1.67,0.19-3.32,0.24-4.98C85.19,91.97,85.81,90.57,86.73,89.41z"/>
		</g>
		<g>
			<path class="st3" d="M87.84,113.26c0.93,0,1.87-0.02,2.79-0.2c0.22,1.23,0.35,2.47,0.58,3.69c-0.51-0.11-1.04-0.13-1.51,0.1
				c-1.17,0.5-2.22,1.25-3.23,2.02c-0.58,0.77-0.96,1.68-1.45,2.51c-0.95,0.36-1.78,0.93-2.67,1.39c-0.23-1.56-0.4-3.13-0.67-4.69
				c-0.23-1.37-0.12-2.8-0.57-4.13c1.11-0.26,2.26,0,3.38-0.23C85.6,113.54,86.72,113.33,87.84,113.26z"/>
		</g>
		<g>
			<path class="st3" d="M119.87,118.24c0.46-0.92,1.24-1.62,1.85-2.43c1.19,0.8,2.56,1.29,3.7,2.19c-1.93,2.25-1.84,5.42-1.4,8.17
				c0.06,0.84,0.46,1.62,0.53,2.45c-0.46,0.34-1.05,0.28-1.58,0.28c-0.48,0.73,0.21,1.35,0.46,2.01c0.09,0.28,0.17,0.56,0.26,0.84
				c-0.15,0.48-0.08,0.98,0.2,1.41c0.03,0.23,0.06,0.46,0.09,0.69c-0.03,0.1-0.1,0.3-0.13,0.4c-0.78,0.5-1.68,0.79-2.54,1.11
				c-0.44-1.87-1.11-3.7-1.31-5.62c-0.17-1.22-0.15-2.46-0.33-3.67c-0.27-1.9,0.02-3.82,0.24-5.71
				C119.95,119.64,119.8,118.94,119.87,118.24z"/>
		</g>
		<g>
			<path class="st3" d="M107.67,119.73c0.32-1.11,0.76-2.21,1.49-3.11c0.95,0.87,0.9,2.25,1.17,3.42c0.39,1.67,0.07,3.37-0.07,5.05
				c-0.11,2.45-0.65,4.93-0.08,7.36c0.28,1.75,1.06,3.35,1.42,5.08c-0.63-0.02-1.25-0.04-1.87-0.06c-1.19-1.94-1.77-4.21-1.89-6.47
				c-0.07-1.23,0.14-2.44,0.1-3.67C107.93,124.8,107.19,122.26,107.67,119.73z"/>
		</g>
		<g>
			<path class="st3" d="M124.66,123.62c-0.26-1.81,0.32-3.64,1.29-5.16c1.33,1.17,2.56,2.48,3.37,4.07
				c-1.45,0.95-2.53,2.4-3.16,4.01c-0.2,0.51-0.45,0.99-0.73,1.45C124.73,126.66,124.86,125.09,124.66,123.62z"/>
		</g>
		<g>
			<path class="st3" d="M88.29,125.91c1.24-0.59,2.5-1.15,3.81-1.61c0.04,0.67,0.08,1.34,0.15,2.01c-0.83-0.04-1.67-0.07-2.47,0.16
				C89.25,126.38,88.61,126.42,88.29,125.91z"/>
		</g>
		<g>
			<path class="st3" d="M142.09,131.2c1.31-0.74,2.74-1.46,4.27-1.46c0.96,0.32,1.82,0.89,2.73,1.31c-0.94,1.05-2.03,1.95-3.11,2.85
				c-0.24,1.03,0.35,1.91,0.93,2.69c-0.5-0.15-1.18-0.07-1.44-0.62c-0.43-0.49-0.73-1.43-1.49-1.38c0.19,1.11,0.87,2.07,1.5,2.97
				c-0.52-0.09-1.03-0.19-1.54-0.34c-0.58-0.98-1.48-1.72-2.06-2.7c0.44-0.06,0.94,0.01,1.31-0.29c0.17-0.42,0.06-0.87-0.04-1.29
				c0.06-0.05,0.17-0.15,0.23-0.2c0.41-0.4,0.55-0.96,0.76-1.47C143.46,131.31,142.75,131.46,142.09,131.2z"/>
		</g>
		<g>
			<path class="st3" d="M105.24,131.77c0.55-0.03,1.09,0.09,1.6,0.28c0.26,1.91,0.9,3.76,1.84,5.44c-0.66,0.04-1.3,0.21-1.93,0.42
				c-0.06-0.15-0.19-0.44-0.25-0.59c-0.46-1.25-1.85-1.7-3.05-1.88C104.22,134.31,104.72,133.04,105.24,131.77z"/>
		</g>
		<g>
			<path class="st3" d="M123.03,135.81c0.45-0.35,0.99-0.53,1.53-0.69l0.05,0.23c0.04,0.17,0.08,0.34,0.12,0.52
				c-0.32,0.44,0.03,0.88,0.23,1.28c-0.76,0.73-1.36,1.63-1.6,2.68c-0.71,0.23-1.44,0.43-2.18,0.53c-0.09-1.04-0.56-1.99-1.13-2.84
				C121.02,136.9,122.11,136.49,123.03,135.81z"/>
		</g>
		<g>
			<path class="st3" d="M147.34,136.93l0.13-0.06c0.22,0.32,0.16,0.53-0.19,0.61C147.29,137.34,147.32,137.07,147.34,136.93z"/>
		</g>
		<g>
			<path class="st3" d="M146.57,137.96c0.11-0.05,0.33-0.15,0.44-0.2l-0.03,0.2l-0.22,0.1L146.57,137.96z"/>
		</g>
		<g>
			<path class="st3" d="M133.88,140.34c0.78-0.13,1.55-0.34,2.32-0.51c0.02,1.13,0.11,2.26,0.16,3.39
				c-0.26,0.29-0.55,0.57-0.72,0.93c-0.07,1.17,0.42,2.26,0.78,3.35c0.11,0.42,0.61,0.47,0.92,0.68c0.53,1.32,1.14,2.6,1.63,3.94
				c0.17,1.3,0.1,2.62,0.27,3.92c-0.94,0.9-2.07,1.56-3.13,2.31c-1.37,1.08-2.94,1.83-4.51,2.56c-1.26,0.63-2.69,0.75-4,1.27
				c0.11-2.17,0.07-4.35,0.08-6.52c0.16-0.84,0.48-1.66,0.64-2.5c0.34-1.62,1.15-3.08,1.52-4.69c0.71-0.58,0.75-1.54,0.83-2.38
				c0.1-1.03-0.68-1.97-0.39-2.99c0.27-1.07,0.59-2.13,0.72-3.23C131.95,140.13,132.9,140.52,133.88,140.34z"/>
		</g>
		<g>
			<path class="st3" d="M124.9,142.7c0.75-1.2,1.72-2.26,2.93-3.01c-0.14,1.11-0.16,2.25-0.45,3.35c-1.99,0.26-3.19,2.01-4.73,3.07
				C123.35,144.94,124.06,143.77,124.9,142.7z"/>
		</g>
		<g>
			<path class="st3" d="M139.42,140.02c2.41,1.14,4.42,3,6.03,5.1c0.61,0.79,1.15,1.82,0.76,2.84c-0.14,0.74-0.81,1.27-1.54,1.34
				c-1.09,0.08-2.22-0.06-3.15-0.68c0.22-0.95,0.34-1.94,0.11-2.9c0.82,0.23,1.6,0.62,2.45,0.73c0.16-0.3,0.12-0.55-0.13-0.77
				c-1.21-1.06-3.14-0.94-4.11-2.31C139.83,142.24,139.64,141.12,139.42,140.02z"/>
		</g>
		<g>
			<path class="st3" d="M109.32,141.16c0.61,0.07,1.22,0.1,1.82,0.23c0.65,0.58,0.87,1.51,0.89,2.34c0.02,1.53,0.1,3.06,0.1,4.59
				c-1.22,0.04-2.42-0.14-3.59-0.46c0.03-1.83,0.76-3.55,1.01-5.36C109.59,142.05,109.42,141.6,109.32,141.16z"/>
		</g>
		<g>
			<path class="st3" d="M121.4,142.64c0.57,0.39,0.94,1.01,1.04,1.7c-0.31,0.54-0.7,1.02-1.04,1.53
				C121.39,144.79,121.4,143.72,121.4,142.64z"/>
		</g>
		<g>
			<path class="st3" d="M121.77,147.55c1.28-0.56,2.13-1.75,3.26-2.55c-0.33,1.25,0.3,2.41,0.9,3.46c-0.9,0.63-1.76,1.4-2.84,1.71
				c-0.55,0.11-1.36,0.17-1.67-0.41C121.19,149.02,121.57,148.26,121.77,147.55z"/>
		</g>
		<g>
			<path class="st3" d="M91.21,160.47c0.02,0.01,0.07,0.03,0.09,0.04C91.28,160.49,91.24,160.47,91.21,160.47z"/>
		</g>
	</g>
	<g>
		<g>
			<path class="st4" d="M81.04,87.17"/>
		</g>
		<g>
			<g>
				<path class="st4" d="M94.45,95.75c1.27-0.21,2.57-0.24,3.83,0c-0.13,0.82,0.07,1.79-0.53,2.48c-0.66,0.75-1.86,0.73-2.72,0.39
					C94.04,98.03,94.22,96.71,94.45,95.75z M95.37,96.26c-0.05,0.55,0.36,0.92,0.71,1.29c0.23-0.18,0.82-0.16,0.75-0.57
					C96.76,96.27,95.95,96.08,95.37,96.26z"/>
			</g>
		</g>
		<g>
			<g>
				<path class="st4" d="M86.94,96.01c1.51-0.25,3.04-0.18,4.56-0.04c0.18,1.06,0,2.25-0.85,2.99c-1.09,0.73-2.57,0.37-3.5-0.46
					C86.47,97.84,86.65,96.81,86.94,96.01z M88.79,96.28c-0.43,0.44-0.04,1.1,0.45,1.27c0.37-0.13,1.1-0.2,0.89-0.77
					C89.78,96.46,89.29,95.91,88.79,96.28z"/>
			</g>
		</g>
		<g>
			<path class="st4" d="M112.38,98.32c0.77-1.1,2.24-1.12,3.45-1.17c0.82,0.16,1.7,0.43,2.32,1.03c0.54,0.57,0.04,1.36-0.04,2.01
				c0.34,0.1,0.68,0.2,1.02,0.31c-0.03,0.06-0.09,0.19-0.12,0.26c-2.07-1.06-4.56-1.01-6.73-0.32
				C111.76,99.8,111.81,98.92,112.38,98.32z"/>
		</g>
		<g>
			<path class="st4" d="M111.81,101.72c1.51-0.9,3.33-0.99,5.03-0.66c1.72,0.25,3.46,1.24,4.24,2.84c0.42,0.81,0.71,1.69,0.81,2.6
				c-0.22-0.1-0.44-0.2-0.67-0.29c0.06-1.03-0.79-1.74-1.45-2.4c0.04,0.64,0.18,1.27,0.41,1.87c-0.11-0.07-0.32-0.2-0.42-0.26
				c-0.29-0.96-0.77-1.85-1.44-2.59c-0.07,0.04-0.22,0.13-0.3,0.17c0.18,0.73,0.44,1.43,0.65,2.15c-0.3-0.03-0.6-0.06-0.9-0.09
				c-0.16-1.03-0.69-2.02-1.5-2.66c0.08,0.88,0.35,1.73,0.5,2.61c-0.27,0-0.53,0.01-0.8,0.01c0.03-1.09-0.46-2.24-1.38-2.86
				c0.14,0.99,0.4,1.97,0.33,2.98c-0.32,0.03-0.64,0.07-0.96,0.11c0.07-1.12-0.34-2.22-0.98-3.12c-0.12,1.12-0.05,2.25-0.12,3.37
				c-0.44,0.13-0.87,0.27-1.3,0.41c-0.05-1.06,0.02-2.15-0.28-3.18c-0.65,1.05-0.71,2.32-0.65,3.52c-0.25,0.16-0.51,0.32-0.76,0.48
				c0.24-0.78,0.17-1.6-0.07-2.37c-1.05,0.74-0.97,2.28-1.02,3.44c-0.3,0.52-0.58,1.07-0.8,1.63c-0.27-1.61,0.06-3.23,0.62-4.73
				C109.27,103.36,110.41,102.28,111.81,101.72z"/>
		</g>
		<g>
			<path class="st4" d="M138.4,101.63c0.61,0.42,1.61,0.22,2.02,0.88c0.38,1.89,0.41,3.84,0.68,5.75c0.38,4.98,0.86,9.95,1,14.94
				c0.01,2.25,0.77,4.42,0.65,6.67c-0.2,0.42-0.64,0.65-0.94,0.98c0.09-0.72,0.16-1.51-0.25-2.14c-0.46-0.85-1.41-1.39-1.64-2.37
				c-0.45-1.46-1.44-2.7-2.6-3.66c-0.99-0.84-2.32-1.06-3.55-1.29c-1.26-0.22-2.46,0.33-3.63,0.72c-0.95-1.82-2.48-3.22-3.96-4.61
				c0.29-2.14,0.13-4.29,0.35-6.43c0.1-1.76,0.02-3.52,0.27-5.27c0.01-0.91,0.3-1.93-0.31-2.71c0.53-0.17,1.08-0.3,1.63-0.41
				c0.07,2.66-0.15,5.32-0.05,7.99c0,0.63,0.28,1.45,0.91,1.67c2.9,0.02,5.79-0.11,8.68-0.38c0.54-0.08,1.07,0.07,1.61,0.1
				c0.37,0.02,0.15-0.47,0.15-0.68c0.03-1.35-0.05-2.71-0.06-4.07C139.06,105.41,139.59,103.29,138.4,101.63z"/>
		</g>
		<g>
			<path class="st4" d="M86.83,108.62c0.18-0.33,0.54-0.5,0.83-0.71c0.13,1.4,0.38,2.78,0.65,4.16c-0.69,0.06-1.37,0.16-2.05,0.27
				c-0.3-0.26-0.6-0.53-0.91-0.79C85.8,110.55,86.28,109.56,86.83,108.62z"/>
		</g>
		<g>
			<path class="st4" d="M96.03,108.32c0.35,0.15,0.7,0.3,1.06,0.45c0.33,0.98,0.72,1.95,1.18,2.87c-0.77,0.29-1.55,0.59-2.26,1.02
				c-0.2,0.38,0.02,0.77,0.14,1.14c0.52,0.21,1.02,0.46,1.52,0.72c-1.13,2.08-2.63,3.97-3.58,6.15c0.21,0.1,0.43,0.21,0.64,0.32
				c0.36-0.56,0.72-1.13,1.14-1.65c1.08-1.46,1.82-3.19,3.15-4.46c-0.45-0.75-1.16-1.26-1.94-1.63c0.62-0.35,1.31-0.54,2.01-0.64
				c0.39-0.18,0.14-0.61,0.06-0.9c-0.35-0.87-0.83-1.7-1.02-2.64c1.37,0.32,2.66,0.88,3.95,1.44c0.83,0.45,1.45,1.31,1.51,2.26
				c0.39,3.81,0.07,7.64,0.05,11.46c-0.01,2.37-0.33,4.73-0.96,7.01c-0.76,0.84-1.87,1.07-2.96,1.02c-2.89-0.21-5.86,0.3-8.69-0.54
				c-0.02-1.46,0.04-2.92-0.04-4.38c1.2-0.07,2.41,0.07,3.61-0.02c1.6-0.11,3.21-0.16,4.81-0.09c0.35,0.05,0.66-0.15,0.86-0.42
				c0.58-3.54,1.31-7.07,1.62-10.65c0.11-0.8-0.15-1.58-0.57-2.24c-0.08,0.07-0.24,0.21-0.31,0.29c-0.03,3.66-0.99,7.23-1.54,10.84
				c-0.07,0.41-0.13,1.12-0.7,1.09c-1.89,0.08-3.79,0.14-5.68,0.23c-0.02-0.82,0.14-1.75-0.5-2.39c0.8-0.41,1.66-0.9,1.92-1.83
				c0.04-0.66-0.6-0.98-1.11-1.2c0.14-0.16,0.27-0.31,0.41-0.47c0-0.37-0.06-0.72-0.32-1c0.73-1.58,0.92-3.34,1.32-5.02
				C95.18,112.39,95.79,110.4,96.03,108.32z"/>
		</g>
		<g>
			<path class="st4" d="M120.05,109.05c0.73,0.14,1.56,0.19,2.16,0.67c0.37,0.67,0.14,1.59-0.37,2.14
				c-0.94,1.08-2.53,1.29-3.86,0.97c-0.8-0.3-0.86-1.3-1.1-2c0.48-0.61,1.08-1.12,1.79-1.45c-0.06,0.74-0.35,1.72,0.36,2.24
				c0.59,0.5,1.42-0.12,1.62-0.74C120.78,110.21,120.35,109.63,120.05,109.05z"/>
		</g>
		<g>
			<path class="st4" d="M81.92,109.55c1.32-0.44,2.7-0.68,4.06-1c-0.52,0.99-1.03,1.98-1.47,3.01c0.23,0.33,0.52,0.63,0.85,0.87
				c-1.24,0.37-2.53,0.48-3.81,0.54c-0.47,0.06-1.1-0.03-1.34,0.49c0.16,0.69,0.41,1.37,0.42,2.08c0.06,1.4,0.35,2.78,0.47,4.18
				c0.11,1.15,0.21,2.31,0.46,3.44c-1.63,0.83-3.37,1.44-4.94,2.39c-0.1-1.59,0.57-3.09,0.83-4.63c0.2-1.47,0.8-2.83,1.11-4.27
				c0.37-1.95,1-3.83,1.82-5.63C80.74,110.42,81.21,109.78,81.92,109.55z"/>
		</g>
		<g>
			<path class="st4" d="M108.05,110.77c0.58-0.48,1.37-0.6,2.08-0.81c-0.26,0.56-0.62,1.15-0.45,1.8c0.09,0.56,0.73,0.75,1.16,1.01
				c0.36-0.24,0.79-0.47,0.9-0.93c0.06-0.57-0.1-1.13-0.2-1.69c0.71,0.28,1.32,0.75,1.89,1.24c-0.13,0.71-0.14,1.62-0.79,2.08
				c-1.14,0.49-2.53,0.45-3.6-0.18C108.12,112.91,107.6,111.66,108.05,110.77z"/>
		</g>
		<g>
			<path class="st4" d="M110.9,118.48c0.85,1.18,1.72,2.64,3.33,2.79c1.76,0.01,4.05-0.1,4.89-1.96c-0.34,1.01-0.1,2.24-0.94,3.04
				c-1.64,1.2-3.89,1.18-5.7,0.39c-0.26-0.2-0.47-0.46-0.67-0.72c-0.41-0.47-0.21-1.14-0.3-1.7
				C111.51,119.66,111.14,119.08,110.9,118.48z"/>
		</g>
		<g>
			<path class="st4" d="M83.03,123.47c0.75-0.41,1.48-0.84,2.28-1.15c0.65,1.22,1.34,2.42,2,3.63c-1.51-0.02-3.18,0.19-4.37,1.22
				c-0.12,0.31-0.06,0.65-0.09,0.98c-0.41,0.29-0.93,0.51-1.16,0.99c-0.07,0.38,0.09,0.76,0.17,1.12c-0.12,0.01-0.37,0.04-0.5,0.05
				c-1.51-1.34-3.28-2.38-5.25-2.85c0.13-0.24,0.21-0.53,0.45-0.68C78.57,125.42,80.84,124.51,83.03,123.47z"/>
		</g>
		<g>
			<path class="st4" d="M111.49,123.05c1.67,1.59,4.61,2.12,6.48,0.57c0.28-0.09,0.55-0.21,0.81-0.34
				c-0.04,0.69-0.08,1.38-0.02,2.07c0.22,2.03,0.22,4.08,0.6,6.09c0.24,1.49,0.73,2.91,1.19,4.34c-0.56,0.29-1.11,0.58-1.66,0.9
				c-1.39-0.19-2.87-0.39-4.2,0.17c-0.32,0.1-0.5,0.39-0.72,0.63c-0.36,0.02-0.73,0.04-1.09,0.05c-0.08-0.08-0.23-0.23-0.31-0.31
				c-0.06-0.45-0.17-0.9-0.34-1.32c-0.62-1.54-1.09-3.16-1.21-4.83C110.95,128.4,111.36,125.73,111.49,123.05z"/>
		</g>
		<g>
			<path class="st4" d="M84.77,133.57c1.73-0.33,3.25-1.34,4.98-1.66c0.19,1.37-0.06,2.74-0.01,4.11c-0.07,4.89-0.41,9.77-0.8,14.64
				c-0.16,1.52,0.13,3.06-0.14,4.57c-0.22,1.36-0.19,2.75-0.3,4.12c-1.82-0.84-3.61-1.75-5.29-2.84c-1.99-1.26-3.71-2.89-5.31-4.6
				c-0.01-0.66,0.02-1.32,0.05-1.99c1.69,0.55,3.51,0.14,5.22,0.62c0.67,0.27,1.22-0.39,1.66-0.8c0.34-4.07,0.5-8.17,0.29-12.25
				c0.02-0.59-0.56-0.8-1.05-0.85c-0.13-1.11-0.32-2.23-0.69-3.29C83.82,133.48,84.29,133.68,84.77,133.57z"/>
		</g>
		<g>
			<path class="st4" d="M82.73,132.08c0.32,0.05,0.45,0.24,0.4,0.57C82.82,132.57,82.69,132.38,82.73,132.08z"/>
		</g>
		<g>
			<path class="st4" d="M90.87,132.99c2.29,0.49,4.64,0.46,6.97,0.44c0.59,0.01,1.22-0.15,1.79,0.09c0.44,0.78,0.5,1.69,0.69,2.55
				c-1.69,0.15-3.38,0.15-5.07,0.14c-0.27,0.03-0.61-0.1-0.83,0.11c0.01,1.12-0.08,2.24,0.1,3.35c-1.39,2.05-1.22,4.64-1.16,7
				c-0.03,2.76,0.12,5.51,0.06,8.27c0.09,2.15-0.07,4.32,0.27,6.45c-0.45-0.17-0.92-0.32-1.37-0.48c0.04-1.13-0.08-2.26-0.25-3.38
				c-0.17-3.25-0.41-6.5-0.39-9.77c-0.03-2.15-0.4-4.28-0.48-6.44C91.11,138.54,91.15,135.76,90.87,132.99z"/>
		</g>
		<g>
			<path class="st4" d="M141.73,135.79c0.39,0.88,0.84,1.76,1.62,2.37c0.16,1.07,0.19,2.16,0.29,3.24c-0.37-0.3-0.74-0.61-1.11-0.91
				c-0.1-0.86-0.17-1.73-0.3-2.58c-0.07-0.55-0.55-0.9-0.89-1.28C141.47,136.35,141.6,136.07,141.73,135.79z"/>
		</g>
		<g>
			<path class="st4" d="M95.15,137.27c1.49-0.08,2.97-0.34,4.46-0.47c-0.17,0.26-0.34,0.53-0.51,0.8c-1.41,0.05-2.88,0.29-3.92,1.35
				C95.18,138.38,95.17,137.83,95.15,137.27z"/>
		</g>
		<g>
			<path class="st4" d="M83.98,137.58c0.15-0.02,0.45-0.07,0.6-0.09c-0.05,0.74-0.06,1.49-0.06,2.24c-0.52-0.02-1.03-0.04-1.55-0.05
				C83.35,138.99,83.66,138.28,83.98,137.58z"/>
		</g>
		<g>
			<path class="st4" d="M82.23,140.62c0.69-0.26,1.49,0.06,2.23-0.01c-0.03,2.62-0.11,5.25-0.38,7.85
				c-0.06,0.41-0.29,0.77-0.45,1.15c-1.87-0.22-3.75-0.34-5.64-0.41c0.07-1.89,0.61-3.74,0.6-5.63l0.13,0.19
				C80.06,142.92,81.1,141.7,82.23,140.62z"/>
		</g>
		<g>
			<path class="st4" d="M98.04,141.73c0.46-0.38,1.23-0.3,1.79-0.58c0.17,0.45,0.36,0.88,0.58,1.31c0.36,0.04,0.72,0.09,1.09,0.14
				c0.25,0.25,0.5,0.5,0.75,0.75c-0.21,1.72-0.17,3.45-0.22,5.18c-1.56,0.26-3.13,0-4.7,0C97.56,146.26,97.29,143.91,98.04,141.73z"
				/>
		</g>
		<g>
			<path class="st4" d="M118.91,143.02c0.41-0.24,0.75-0.57,1.11-0.87c0.1,0.08,0.29,0.25,0.39,0.34c-0.01,1.11,0.02,2.22,0.05,3.33
				c-1.59-0.01-3.17-0.18-4.76-0.17c0.03-1.05-0.25-2.11-0.11-3.14c0.66,0.18,1.3,0.48,2.01,0.38
				C118.02,143,118.48,143.25,118.91,143.02z"/>
		</g>
		<g>
			<path class="st4" d="M97.19,151.37c1.56,0.13,3.12,0.05,4.68-0.11c-0.25,3.16-0.1,6.34-0.3,9.49c-0.07,0.97-0.38,2.02,0.15,2.91
				l0.01,0.04c-0.12,0.07-0.38,0.2-0.5,0.27l0.14-0.39c-1.62-0.22-3.23-0.58-4.76-1.15c0.16,0.02,0.5,0.06,0.66,0.08
				c-0.03-1.28,0.06-2.55,0.06-3.82C97.19,156.25,97.2,153.81,97.19,151.37z"/>
		</g>
	</g>
	<g>
		<g>
			<path class="st5" d="M90.03,89.53c1.08,2.05,2.56,3.95,4.52,5.23c-0.3,0.13-0.59,0.27-0.88,0.41c-0.17-0.03-0.52-0.09-0.69-0.12
				c-0.39,0.11-0.77,0.27-1.17,0.28c-1.54-0.91-3.39-0.27-5.06-0.25c0.24-0.62,0.64-1.18,0.8-1.83
				C87.89,91.75,89.01,90.62,90.03,89.53z"/>
		</g>
		<g>
			<g>
				<path class="st5" d="M92.26,95.94c0.48,0.02,0.96,0.03,1.44,0.03c-0.21,1.21,0.05,2.57,1.03,3.39c1.02,0.7,2.38,0.27,3.27-0.44
					c0.6-0.4,0.59-1.2,0.98-1.75c-0.07,0.86-0.14,1.74-0.45,2.56c-0.53,1.38-0.62,3-1.75,4.08c-0.64,0.8-1.89,1.13-2.07,2.24
					c-0.11,0.74,0.32,1.4,0.43,2.11c-1.07,0.37-2.1,1-3.27,0.97c-1.32-0.01-2.52-0.65-3.63-1.3c0.45-0.32,1-0.55,1.34-1.01
					c0.14-0.45,0.24-0.92,0.39-1.37c-0.63-0.82-1.42-1.54-1.9-2.46c-0.65-1.1-0.9-2.36-1.22-3.57c1.05,0.95,2.64,0.88,3.88,0.37
					c0.75-0.22,1.04-1.02,1.38-1.64C92.48,97.46,92.41,96.67,92.26,95.94z M92.69,97.06c-0.05,0.99-0.07,1.99-0.07,2.98
					c0.04,0.45,0.69,1.2,0.98,0.47c-0.07-0.9-0.25-1.79-0.34-2.69C93.24,97.47,92.92,97.27,92.69,97.06z M94,101.56
					c-0.7,0.19-1.43,0.43-2.15,0.22c-0.37-0.07-0.74-0.27-1.11-0.09c-0.03,0.4,0.38,0.6,0.67,0.78c0.93,0.57,2.13,0.55,3.1,0.1
					C94.83,102.3,94.52,101.35,94,101.56z"/>
			</g>
		</g>
		<g>
			<g>
				<path class="st5" d="M135.05,103.6c0.97-1.07,2.19-1.88,3.13-2.97l-0.04,0.19c-0.07,0.38-0.12,0.77-0.09,1.15
					c0.33,3.03,0.56,6.1,0.37,9.15c-3.14,0.18-6.3,0.4-9.45,0.22c-0.2-2.67,0.22-5.33,0.08-8c-0.03-0.54-0.26-1.04-0.44-1.54
					c-0.01-0.14-0.03-0.41-0.05-0.55c1.27,0.82,2.34,1.93,3.67,2.66c-0.8,1.15-1.79,2.19-2.37,3.48c0.4-0.12,0.97,0.03,1.24-0.36
					c0.5-0.68,0.95-1.4,1.5-2.03c0.32,0.61,0.78,1.11,1.39,1.44C134.43,105.53,134.65,104.53,135.05,103.6z M135.13,103.94
					c-0.21,0.52-0.05,1.12,0.37,1.49c0.83,0.79,1.46,1.76,2.35,2.48c0.1-0.12,0.3-0.35,0.4-0.46c0.01-0.09,0.04-0.27,0.06-0.36
					C137.45,105.86,136.24,104.93,135.13,103.94z"/>
			</g>
		</g>
		<g>
			<path class="st5" d="M141.41,102.45c0.1,0.05,0.3,0.16,0.4,0.21c0.27,0.81,0.47,1.66,0.92,2.39c1.13,2.08,3.17,3.5,5.32,4.36
				c1.77,0.58,3.59,1.07,5.45,1.31l0.05,0.01c1.1,1.17,2.11,2.42,3.2,3.59c0.46,0.55,1.08,1.18,0.78,1.96
				c-0.75,3.3-2.69,6.14-4.41,9c-0.92,1.79-2.18,3.36-3.01,5.19c-1.06-0.64-2.21-1.12-3.29-1.71c0.8-1.77,1.57-3.55,2.33-5.34
				c0.92-1.96,2.02-3.86,2.59-5.96c0.49-0.92-0.21-1.88-0.81-2.54c-1.51-1.17-2.96-2.42-4.5-3.55c-0.27-0.22-0.61-0.31-0.95-0.36
				c0.26,2.18-0.14,4.36-0.35,6.53c-0.12,1.99-0.44,3.96-0.36,5.96c0.1,0.46,0.34,0.9,0.24,1.38c-0.15,1.43-0.18,2.88-0.26,4.32
				c-0.33,0.09-0.67,0.19-1,0.28c-0.03-1.87-0.49-3.69-0.56-5.56c-0.08-5-0.65-9.97-1.04-14.94
				C141.8,106.83,141.78,104.62,141.41,102.45z"/>
		</g>
		<g>
			<path class="st5" d="M124.51,103.82c0.34-0.33,0.84-0.33,1.28-0.43c0.05,0.8,0.03,1.6-0.07,2.39c-0.17,1.37-0.09,2.74-0.16,4.12
				c-0.14,2.37-0.3,4.75-0.24,7.14c-0.77-0.67-1.62-1.25-2.54-1.69c1.11-0.55,1.4-1.83,1.57-2.94c0.1-0.61-0.03-1.22-0.16-1.81
				c-0.47-0.41-1.3-0.7-1.19-1.47c0.13-1.38-0.23-2.73-0.49-4.08C123.12,104.55,123.89,104.3,124.51,103.82z"/>
		</g>
		<g>
			<path class="st5" d="M113.94,105.25c0.32-0.04,0.64-0.08,0.96-0.11c0.24,0.35,0.57,0.6,0.96,0.76c0.02-0.22,0.07-0.66,0.09-0.88
				c0.27-0.01,0.53-0.01,0.8-0.01c0.01,0.54,0.37,0.89,0.9,0.93c0.02-0.22,0.08-0.66,0.1-0.87c0.3,0.03,0.6,0.06,0.9,0.09
				c0.12,0.44,0.3,0.95,0.84,0.97c0.09-0.23,0.17-0.47,0.25-0.7c0.11,0.06,0.32,0.2,0.42,0.26c0.11,0.47,0.6,1.13,1.04,0.52
				c0.22,0.09,0.44,0.19,0.67,0.29c0.18,0.68,0.18,1.38,0.23,2.08c-2.02-0.71-4.56-0.22-5.95,1.47c-0.64-0.18-1.29-0.03-1.92,0.13
				c-0.06,0.08-0.19,0.24-0.25,0.31c-1.62-1.53-4.15-1.62-6.13-0.8c0.02-0.06,0.08-0.19,0.1-0.25c0.23-0.56,0.5-1.11,0.8-1.63
				c0.09,0.09,0.27,0.27,0.37,0.36c0.56-0.23,0.54-0.94,0.72-1.43c0.25-0.16,0.5-0.32,0.76-0.48c0.22,0.33,0.54,0.56,0.88,0.75
				c0.03-0.37,0.05-0.73,0.06-1.1c0.43-0.14,0.87-0.27,1.3-0.41c0.1,0.19,0.19,0.39,0.29,0.58c0.15,0.03,0.46,0.1,0.61,0.13
				C113.81,105.89,113.88,105.57,113.94,105.25z"/>
		</g>
		<g>
			<path class="st5" d="M123.37,110.69c0.63,1.14,0.15,2.69-0.78,3.52C122.78,113.02,123.03,111.85,123.37,110.69z"/>
		</g>
		<g>
			<path class="st5" d="M114.88,110.94c0.26-0.05,0.53-0.1,0.79-0.15c0.28,1.05,0.31,2.14,0.41,3.21c-0.38,0.01-0.76,0.02-1.14,0.04
				C114.95,113,115,111.97,114.88,110.94z"/>
		</g>
		<g>
			<path class="st5" d="M106.9,112.24c0.59,1,1.04,2.08,1.35,3.2C107.4,114.64,106.62,113.45,106.9,112.24z"/>
		</g>
		<g>
			<g>
				<path class="st5" d="M114.11,112.81c-0.05,0.44-0.09,0.89-0.13,1.33c-0.7,0.24-1.51,0.46-1.8,1.22c-0.5,0.7-0.32,1.84,0.58,2.11
					c-0.08-0.5-0.18-1-0.29-1.49c0.33-0.72,1.05-1.03,1.76-1.24c0.21,0.12,0.43,0.25,0.65,0.37c0.45-0.15,0.9-0.33,1.37-0.4
					c0.68,0.06,1.3,0.35,1.93,0.59c0.13,0.39,0.21,0.84,0.64,1c0.35-1.22-0.81-2.03-1.84-2.27c-0.07-0.37-0.15-0.75-0.22-1.12
					c0.46,0.42,0.93,0.91,1.57,1.02c1.01,0.16,1.97-0.25,2.93-0.49c0.17-0.14,0.34-0.28,0.51-0.43c-0.81,2.24-2.55,3.93-3.73,5.96
					c-0.41,0.79-1.37,0.91-2.16,0.99c-0.92,0.04-1.86,0.11-2.75-0.12c-0.58-0.33-0.85-0.97-1.19-1.52c-0.44-0.76-1.2-1.24-1.76-1.89
					c-0.52-0.59-0.87-1.31-1.18-2.02c1.1,0.14,2.22,0.57,3.33,0.22C113.18,114.3,113.71,113.55,114.11,112.81z M115.75,116.33
					c-0.83,0.33-1.5-0.4-2.17-0.75c0.34,0.78,0.96,1.98,1.98,1.73c1-0.12,1.79-1.05,1.75-2.06
					C116.77,115.59,116.42,116.23,115.75,116.33z M113.49,117.41c-0.05,1.08,0.8,2.24,1.97,2.1c0.84-0.28,1.55-0.99,1.54-1.92
					c-0.62,0.57-1.31,1.19-2.22,1.1C114.05,118.68,114.05,117.72,113.49,117.41z"/>
			</g>
		</g>
		<g>
			<path class="st5" d="M88.25,118.81c0.74-0.49,1.48-0.99,2.3-1.35c-0.4,0.79-1.31,1.11-1.9,1.75c0.06,0.19,0.17,0.58,0.22,0.77
				c1.16-0.63,2.2-1.66,3.63-1.6c-0.35,0.57-0.94,0.9-1.39,1.37c0.03,0.14,0.09,0.41,0.12,0.55c0.61-0.15,1.23-0.23,1.85-0.25
				c-0.29,0.41-0.69,0.7-1.12,0.93c0,0.15,0.01,0.45,0.01,0.61c0.55,0.04,1.11,0.08,1.66,0.13c-1.21,2.07-3.84,2.41-5.82,3.44
				c-0.61-1.16-1.37-2.23-2.04-3.35c0.61-0.64,0.92-1.48,1.37-2.23C87.38,119.17,87.88,119.07,88.25,118.81z"/>
		</g>
		<g>
			<g>
				<path class="st5" d="M127.85,125.51c0.93-1.49,2.55-2.45,4.25-2.79c1.27-0.32,2.56,0.12,3.78,0.44
					c1.05,0.26,1.82,1.08,2.47,1.89c0.72,1.13,0.89,2.67,2.07,3.47c0.28,0.72,0.36,1.5,0.54,2.25c0.36,1.03,1.23,2.09,2.43,1.96
					c-0.06,0.05-0.17,0.15-0.23,0.2c-1.07,0.59-2.22-0.01-2.89-0.88c-0.21,1.01,0.48,1.84,1.31,2.29c-0.02,0.26-0.04,0.51-0.06,0.77
					c-0.55-0.01-1.13,0.13-1.64-0.11c-0.3-0.24-0.59-0.5-0.87-0.75c0.22-1.32,0.17-2.67,0.17-4.01c0-0.91-0.01-1.87-0.4-2.71
					c-0.44-0.16-0.39,0.33-0.41,0.62c-0.01,1.53-0.01,3.07-0.09,4.6c-0.05,2.22-2.33,3.7-2.11,5.99c-0.82,0.2-1.6,0.62-2.47,0.63
					c-0.89,0.05-1.74-0.26-2.57-0.54c-0.03-0.39-0.02-0.79-0.14-1.17c-0.48-0.67-1.13-1.18-1.66-1.81
					c-0.75-1.12-1.11-2.48-1.08-3.83c0.14-1.77,0.53-3.55,0.28-5.32c-0.44,0.44-0.71,1.03-0.77,1.65c-0.16,1.35-0.59,2.69-0.45,4.07
					c0.06,1.23,0.44,2.43,0.98,3.53c-1.16,0.1-2.62,0.99-3.57-0.07c-0.04-0.18-0.08-0.35-0.12-0.52c0.57,0.23,1.34,0.51,1.85,0.02
					c0.43-0.34,0.3-0.94,0.38-1.41c-0.93,0.22-2.14,0.87-2.87-0.12c-0.03-0.23-0.06-0.46-0.09-0.69c0.56,0.38,1.22,0.8,1.93,0.58
					c0.3-0.28,0.2-0.8,0.33-1.17c-0.89,0.02-1.91,0.03-2.46-0.82c-0.09-0.28-0.17-0.56-0.26-0.84c0.65,0.56,1.68,1.45,2.47,0.61
					c-0.1-0.37-0.19-0.74-0.28-1.11c-0.52,0.13-1.05,0.12-1.54-0.11c0.78-0.5,1.84-0.71,2.33-1.58
					C126.96,127.68,127.1,126.45,127.85,125.51z M131.18,123.5c-0.49,1.39-1.37,2.64-1.42,4.16c0.13,0.13,0.39,0.4,0.52,0.54
					c0.47-0.71,0.62-1.58,0.98-2.34c0.48,0.49,0.64,1.21,1.18,1.64c0.55,0.42,1.25,1.02,1.95,0.54c0.04-0.16,0.12-0.48,0.16-0.65
					c0.55,0.35,1.06,0.83,1.72,0.94c0.49,0.01,0.57-0.55,0.76-0.88c-0.62-0.19-1.26-0.39-1.78-0.8c-0.81-0.58-1.27-1.49-1.91-2.24
					c-0.07,0.03-0.22,0.08-0.29,0.11c0.17,0.97,0.69,1.83,1.24,2.64c-0.57-0.24-1.33-0.31-1.69-0.88
					C132.14,125.35,131.83,124.33,131.18,123.5z M135.73,124.79c0.11,0.71,0.31,1.44,0.85,1.95c0.41,0.4,0.95,1.11,1.58,0.7
					c0.14-0.75-0.64-1.03-1.07-1.45C136.63,125.59,136.35,124.96,135.73,124.79z M130.05,130.18c0.35,0.26,0.65,0.72,1.15,0.6
					c0.53-0.02,0.7-0.61,0.92-0.99c-0.39-0.46-0.82-0.9-1.29-1.29C130.21,128.85,129.92,129.47,130.05,130.18z M135.84,129
					c-0.21,0.53,0.07,1.25,0.67,1.35c0.55,0.2,0.77-0.46,1.01-0.81c-0.03-0.19-0.08-0.56-0.11-0.75
					C136.89,128.69,136.23,128.57,135.84,129z M133.11,128.89c-0.08,0.71-0.34,1.39-0.36,2.1c0.2,0.44,0.53,0.84,0.92,1.12
					c0.77,0.26,1.57-0.51,1.41-1.29c-0.08-0.56-0.18-1.13-0.25-1.69c-0.68,0.49-0.16,1.41-0.45,2.09c-0.28,0.3-0.67,0.08-1,0.04
					c-0.12-0.79,0.29-1.53,0.25-2.32C133.5,128.94,133.24,128.9,133.11,128.89z M130.85,132.43c0.2,1.26,1.64,1.92,2.81,1.66
					c0.83-0.21,1.77-0.42,2.19-1.25c-1.17,0.15-2.34,0.77-3.54,0.36C131.84,132.92,131.39,132.59,130.85,132.43z"/>
			</g>
		</g>
		<g>
			<path class="st5" d="M83.52,127.72c1.28-0.61,2.74-1.49,4.19-0.9c0.73,0.24,1.52,0.24,2.28,0.28c0.19,1.18,0.13,2.38,0.13,3.57
				c-2.27,0.16-4.16,1.71-6.45,1.73c0.33-0.34,0.75-0.57,1.22-0.68c-0.15-0.47-0.55-0.73-0.96-0.94c-0.48,0.14-0.97,0.2-1.47,0.19
				c0.45-0.43,1.06-0.49,1.64-0.57c0.14-0.84-1-1.06-1.65-1.01c1.22-1.03,2.94-0.93,4.43-1.28c-0.18-0.3-0.33-0.67-0.68-0.82
				C85.29,127.28,84.42,127.62,83.52,127.72z"/>
		</g>
		<g>
			<path class="st5" d="M137.02,138.42c0.27-1.07,1.09-1.88,1.57-2.85c0.74,0.66,1.75,0.99,2.41,1.74c0.46,0.85,0.32,1.87,0.41,2.8
				c-0.87-0.7-1.95-1.04-2.87-1.66c0.11,1.52,0.37,3.02,0.36,4.55c-0.5-0.06-1.01-0.06-1.51-0.03
				C137.12,141.47,136.93,139.94,137.02,138.42z"/>
		</g>
		<g>
			<path class="st5" d="M103.1,136.25c1.26-0.07,2.18,1.02,3.4,1.08c0.06,0.15,0.19,0.44,0.25,0.59c-0.13-0.07-0.4-0.23-0.53-0.31
				c-1.08,0.11-2.18-0.09-3.25,0.04c-0.32,0.36-0.58,0.75-0.86,1.13c0.29,0.17,0.58,0.34,0.87,0.51c-0.61,0.58-1.46,0.55-2.2,0.25
				c0.35-0.78,0.63-1.6,0.9-2.41c-0.49,0.15-0.93,0.6-1.46,0.51c-0.29-0.36,0.33-0.47,0.52-0.65
				C101.48,136.63,102.29,136.39,103.1,136.25z"/>
		</g>
		<g>
			<path class="st5" d="M125.82,137.76c1.08-0.09,2.21-0.35,3.12-0.96c0.38,0.36,0.77,0.71,1.17,1.05c0.24,1.85-0.34,3.67-0.47,5.5
				c-0.46-0.1-0.92-0.19-1.39-0.27c0.54-1.45,0.73-3.06,0.27-4.56c-0.67-0.13-1.2,0.41-1.69,0.78c-1.09,0.97-2.2,1.94-3.02,3.15
				C123.97,140.75,124.31,138.81,125.82,137.76z"/>
		</g>
		<g>
			<path class="st5" d="M114.71,137.54c1.52-0.13,3.26-0.59,4.6,0.42c0.65,0.37,0.84,1.16,0.84,1.86c-0.23,1.03-1,1.86-1.92,2.35
				c0.25-0.47,0.79-0.94,0.54-1.53l-0.22-0.01c-0.47,0.74-1.13,1.62-2.14,1.42c0.16-0.48,0.35-0.95,0.55-1.41
				c-0.12-0.25,0.02-0.79-0.41-0.72c-0.38,0.38-0.54,0.9-0.83,1.33c-0.27,0.48-0.92,0.15-1.36,0.19c0.63-0.5,1.29-1.14,1.33-2
				C115.71,138.69,115.15,138.11,114.71,137.54z"/>
		</g>
		<g>
			<path class="st5" d="M96.35,139.22c1.22-0.73,2.69-0.83,4.06-1.11c-0.28,0.68-0.27,1.4-0.09,2.1c-1.06-0.29-2.55-0.21-3.06,0.94
				c-0.76,1.59-0.8,3.4-0.83,5.12c-0.04,2.06-0.26,4.12-0.24,6.19c-0.03,2.36,0.12,4.71,0.09,7.07c0.08,0.95-0.12,1.95,0.25,2.86
				c-0.96-0.3-1.9-0.64-2.83-1.02c0.21,0.01,0.64,0.04,0.85,0.06c-0.09-4.15-0.05-8.31-0.21-12.46c0.12-2.21-0.21-4.44,0.2-6.63
				C94.64,141.1,95.38,139.98,96.35,139.22z"/>
		</g>
		<g>
			<path class="st5" d="M104.96,140.27c1.02-0.81,2.15-1.51,3.39-1.92c0.17,0.28,0.46,0.53,0.52,0.86
				c-0.07,0.39-0.26,0.75-0.41,1.11c-1.22,0.07-2.02,1.11-2.65,2.05c-0.76,1.06-0.75,2.43-0.87,3.68c-0.05,2.83-0.18,5.65-0.38,8.47
				c-0.23,3.13-0.04,6.27-0.09,9.41c-0.64-0.08-1.28-0.18-1.92-0.25c-0.04-1.39,0.16-2.76,0.13-4.15
				c0.06-5.21,0.27-10.41,0.44-15.61C103.45,142.61,103.81,141.13,104.96,140.27z"/>
		</g>
		<g>
			<path class="st5" d="M121.35,141.66c0.55-0.45,1.22-0.69,1.81-1.08c-0.22,0.76-0.33,1.55-0.34,2.35
				C122.41,142.41,121.9,142,121.35,141.66z"/>
		</g>
		<g>
			<path class="st5" d="M101.57,140.74c0.77,0.2,1.4-0.26,1.98-0.7c-0.41,0.68-0.66,1.49-1.23,2.06c0.1-0.42,0.21-0.83,0.32-1.25
				c-0.55,0.16-0.91,0.62-1.39,0.9c-0.53,0.23-0.72-0.39-0.87-0.76c0.18,0.01,0.55,0.03,0.73,0.05
				C101.22,140.97,101.45,140.82,101.57,140.74z"/>
		</g>
		<g>
			<path class="st5" d="M112.35,141.48c0.49,0.05,0.98,0.08,1.48,0.1c0.36,0.67,0.76,1.35,0.76,2.14c0.11,1.94,0.35,3.88,0.29,5.82
				c-0.03,0.76,0.02,1.53,0.11,2.29c-0.61,0-1.22,0.02-1.83,0.05c0.18-1.87-0.06-3.74-0.03-5.6
				C113.07,144.67,113.32,142.88,112.35,141.48z"/>
		</g>
		<g>
			<path class="st5" d="M136.1,144.66c0.77-1.04,2.12-0.91,3.24-0.68c0.39,0.08,0.71,0.34,1.04,0.54c-0.03,0.1-0.1,0.3-0.13,0.4
				c0.57,0.94,0.55,2.03,0.26,3.06c-0.25-0.11-0.5-0.21-0.75-0.32c-0.97-0.18-1.95-0.3-2.92-0.53c0.4-0.78,1.38-0.52,2.07-0.77
				c0.25-0.24,0.01-0.59-0.31-0.58c-0.62-0.13-1.24,0.06-1.84,0.18c-0.3,0.07-0.67-0.31-0.36-0.56c0.85-0.51,1.89-0.39,2.84-0.43
				C138.59,143.84,137.1,144.73,136.1,144.66z"/>
		</g>
		<g>
			<path class="st5" d="M126.09,144.43c0.93-0.6,2.06-0.71,3.12-0.4c0.43,0.04,0.53,0.51,0.68,0.84c-0.78-0.14-1.66-0.36-2.4,0.02
				c-0.04,0.1-0.12,0.29-0.15,0.39c0.81,0.15,1.64,0.2,2.43,0.45c0.3,0.27,0.3,0.68,0.05,0.98c-0.78-0.37-1.68-0.57-2.53-0.33
				c-0.07,0.11-0.21,0.32-0.28,0.43c0.89,0.1,1.86,0.06,2.62,0.62c0.15,0.65-0.61,0.46-0.97,0.38c-0.75-0.18-1.58,0.09-2.29-0.21
				C125.7,146.69,125.62,145.44,126.09,144.43z"/>
		</g>
		<g>
			<path class="st5" d="M139.86,151.94c-0.37-1.26-0.97-2.45-1.47-3.65c0.4,0.03,0.81,0.06,1.2,0.18c0.41,0.5,0.46,1.38,1.2,1.54
				c0.46,0.2,0.32-0.6,0.44-0.83c0.35,0.19,0.71,0.38,1.08,0.57c0.3,0.98,0.32,2.01,0.47,3.01c-0.92,0.89-1.77,1.87-2.79,2.66
				C139.98,154.26,139.93,153.1,139.86,151.94z"/>
		</g>
		<g>
			<path class="st5" d="M127.08,151.16c0.38-0.76,0.16-1.67,0.57-2.42c0.43-0.02,0.87,0,1.3,0.02c-0.46,1.42-1.01,2.8-1.45,4.23
				c-0.2,0.66-0.3,1.4-0.79,1.93c0.01,0.72,0.03,1.44,0.03,2.17c-1.21,0.01-2.64,0.2-3.61-0.67c-0.54-1.55-0.16-3.19-0.03-4.77
				c0.72-0.38,1.53-0.69,2.05-1.36c0.3-0.36,0.67-0.65,1.06-0.91c0.19,0.48,0.17,0.97,0.02,1.46
				C126.48,150.97,126.78,151.46,127.08,151.16z"/>
		</g>
		<g>
			<path class="st5" d="M105.84,149.19c2.09,0.21,4.19,0.1,6.28-0.03c-0.01,0.33-0.02,0.66-0.03,0.99
				c-0.77,0.14-1.55,0.24-2.34,0.21c-1.3-0.04-2.58,0.24-3.88,0.09C105.87,150.03,105.85,149.61,105.84,149.19z"/>
		</g>
		<g>
			<path class="st5" d="M97.28,149.33c1.55-0.21,3.1-0.05,4.64,0.06c-0.02,0.38-0.04,0.77-0.06,1.16c-1.55-0.02-3.1-0.07-4.65-0.18
				C97.24,150.01,97.26,149.67,97.28,149.33z"/>
		</g>
		<g>
			<path class="st5" d="M113.26,152.62c1.5-0.12,3.01,0.01,4.51-0.09c1.37-0.1,2.74,0.13,4.11,0.22c-0.02,0.29-0.04,0.58-0.06,0.87
				c-2.14,0.13-4.28,0.13-6.42,0.16c-1.98,0.17-3.97,0.11-5.95,0.09c-1.24-0.01-2.49-0.27-3.72-0.02c0.01-0.38,0.02-0.77,0.03-1.15
				C108.26,152.4,110.76,152.86,113.26,152.62z"/>
		</g>
		<g>
			<path class="st5" d="M113.33,154.69c0.62,0.03,1.24,0.05,1.87,0.06c0.28,3.21,0.25,6.44,0.25,9.66c0.37-0.03,0.74-0.06,1.11-0.1
				c-1.76,0.31-3.56,0.13-5.34,0.18c-0.86,0.03-1.71-0.04-2.56-0.14c1.57,0.12,3.14,0.04,4.71,0.07
				C113.58,161.18,113.37,157.94,113.33,154.69z"/>
		</g>
	</g>
	<path class="st1" d="M183.89,79.3c-1.52-1.69-3.85-2.21-6.01-2.45c-1.8-0.17-3.61,0.2-5.28,0.87c-1.03,0.42-1.78,1.25-2.65,1.91
		c-1.17,0.98-1.98,2.34-3.02,3.41c-0.47-0.52-0.66-1.29-1.09-1.87c-1.06-2.11-2.61-3.92-4.11-5.72
		c-5.31-6.33-11.94-11.53-19.32-15.22c-5.19-2.69-10.95-4.13-16.74-4.76c-1.74-0.27-3.49-0.48-5.25-0.57
		c-2.66-0.32-5.34-0.13-8.01-0.06c-2.84,0.13-5.68,0.2-8.51,0.52c-0.58,0.08-1.16,0.18-1.74,0.27c-0.04,0.21-0.1,0.42-0.17,0.62
		c-0.26,0.76-0.68,1.45-1.24,2.07c-0.01,0.01-0.02,0.02-0.03,0.04c-1.15,1.2-2.55,1.97-4.17,2.29c-0.51,0.1-1.04,0.15-1.56,0.15
		c-0.27,0-0.55-0.01-0.82-0.04c-0.88-0.09-1.71-0.35-2.47-0.79c-0.55-0.32-0.88-0.9-0.88-1.53c-4.35,1.42-8.6,3.17-12.57,5.46
		c-2.18,1.37-4.28,2.86-6.32,4.43c-3.46,2.85-6.15,6.47-8.95,9.93c-1.89,2.41-3.55,4.99-5.11,7.63c0.58,0.34,1.15,0.69,1.7,1.07
		l0.17,0.12c1.75,1.22,3.02,2.65,3.77,4.23c0.01,0.02,0.02,0.04,0.03,0.06c0.39,0.89,0.54,1.83,0.45,2.77
		c-0.09,0.96-0.46,1.91-1.11,2.84c-0.9,1.28-1.96,2.13-3.17,2.51c-0.59,0.19-1.21,0.28-1.82,0.28c-0.58,0-1.17-0.08-1.75-0.25
		c-1.06-0.3-2.09-0.8-3.06-1.48c-0.25-0.18-0.51-0.37-0.78-0.56c-0.26,0.75-0.51,1.5-0.73,2.27c-0.85,2.26-1.43,4.77-0.91,7.17
		c0.38,1.31,1.08,2.64,2.26,3.38c1.44,0.41,8.95,2.55,9.79,3.04c0.9,0.5,1.9-0.02,2.83-0.17c1.35-0.1,2.22-1.32,2.76-2.43
		c1.47-2.72,1.48-5.93,2.67-8.74c0.64-1.24,1.17-2.53,1.75-3.79c1-1.8,1.85-3.73,3.26-5.26c1.41-1.81,2.58-3.81,4.25-5.4
		c1.33-1.51,2.9-2.78,4.26-4.26c1.04-0.95,2.12-1.85,3.22-2.72c1.31-0.72,2.37-1.83,3.74-2.47c0.97-0.57,2-1.02,3.01-1.51
		c0.83-0.38,1.8-0.32,2.61-0.75c0.65-0.37,1.43-0.31,2.11-0.61c1.06-0.49,2.25-0.48,3.37-0.76c1.42-0.35,2.86-0.65,4.31-0.81
		c2.03-0.39,4.1-0.56,6.16-0.44c3.22-0.16,6.44,0.18,9.62,0.65c3.09,0.19,6.07,1.1,8.93,2.23c4.25,1.4,8.42,3.21,12.09,5.81
		c1.7,1.34,3.24,2.87,4.73,4.42c1.52,1.84,3.05,3.66,4.54,5.52c-1.21,0.42-2.5,0.49-3.74,0.81c-1.12,0.43-2.27,0.81-3.26,1.51
		c-1.01,1.06-2.18,1.96-3.02,3.17c-0.9,1.18-1.64,2.65-1.31,4.17c1.7,0.45,3.3,1.2,4.83,2.06c3.25,2.15,6.14,4.79,8.75,7.67
		c1.94,0.49,3.78,1.29,5.67,1.93c1.32,0.36,2.53,1.04,3.81,1.52c2.55,1.02,4.99,2.4,7.72,2.92c1.12,0.38,2.31,0.12,3.42-0.2
		c1.04-0.72,1.94-1.67,2.44-2.86c0.94-2.27,1.62-4.63,2.21-7.01c1.03-3.65,2.59-7.12,3.87-10.68c0.9-2.45,1.79-4.91,2.47-7.43
		C187.58,85.84,186.3,81.99,183.89,79.3z"/>
	<g>
		<g>
			<path class="st2" d="M48.51,84.44c0.73,0.04,1.71,0.24,2.93,0.61c1,0.31,2.05,0.71,3.17,1.21c1.37,0.6,2.64,1.31,3.83,2.14
				l0.17,0.12c1.51,1.05,2.57,2.23,3.19,3.54c0.27,0.63,0.38,1.26,0.32,1.91c-0.06,0.65-0.32,1.31-0.8,1.99
				c-0.67,0.96-1.42,1.57-2.25,1.84c-0.83,0.26-1.69,0.27-2.56,0.02c-0.88-0.25-1.72-0.66-2.54-1.23c-1.51-1.05-3.27-2.52-5.29-4.4
				c-2.56-2.36-5.2-4.99-7.92-7.9c-2.1-2.24-4.09-4.45-5.95-6.63c-1.84-2.12-3.4-4.04-4.7-5.75c-0.38-0.59-0.49-1.27-0.31-2.06
				c0.17-0.79,0.43-1.43,0.77-1.91c0.26-0.37,0.54-0.68,0.84-0.92c0.3-0.24,0.6-0.36,0.89-0.37c1.08,1.51,2.19,3,3.32,4.47
				c1.61,2.1,3.27,4.16,4.96,6.17c2.08,2.47,4.24,4.89,6.47,7.27c0.91-1.91-0.69-8.55-1.19-9.27
				C48.52,77.99,48.59,83.53,48.51,84.44z M48.31,85.74c0.2,0.22,0.61,0.64,1.23,1.25c0.62,0.61,1.35,1.33,2.18,2.14
				c1.14,1.1,2.26,2.17,3.38,3.22c1.48,1.38,2.5,2.28,3.08,2.68c0.15,0.1,0.33,0.21,0.55,0.32c0.22,0.11,0.44,0.17,0.66,0.17
				c0.22,0,0.41-0.11,0.57-0.33c0.28-0.41,0.17-0.99-0.33-1.73c-0.51-0.75-1.23-1.55-2.19-2.4c-0.97-0.86-2-1.68-3.11-2.45
				c-1.15-0.81-2.28-1.48-3.38-2.02C49.86,86.06,48.98,85.77,48.31,85.74z"/>
		</g>
		<g>
			<path class="st2" d="M42.46,67.34c-0.48,0.5-1.06,0.76-1.74,0.76c-0.55,0.01-1.07-0.15-1.56-0.49c-0.1-0.07-0.2-0.15-0.31-0.23
				c-0.54-0.52-0.83-1.11-0.89-1.79c-0.05-0.58,0.09-1.11,0.42-1.58c0.06-0.08,0.12-0.16,0.18-0.23c0.49-0.51,1.08-0.76,1.74-0.76
				c0.56,0,1.08,0.16,1.56,0.49c0.1,0.07,0.2,0.15,0.31,0.23c0.55,0.52,0.85,1.12,0.91,1.8c0.04,0.56-0.09,1.07-0.4,1.53
				C42.61,67.15,42.54,67.24,42.46,67.34z M53.19,77.01c0.16,0.11,0.33,0.2,0.51,0.26c0.18,0.06,0.32,0.01,0.43-0.15
				c0.23-0.34,0.15-1.04-0.24-2.09c-0.39-1.05-0.91-2.14-1.54-3.26c-0.63-1.13-1.22-2.04-1.78-2.75c0.21,0.14,0.58,0.54,1.11,1.17
				c0.53,0.64,1.1,1.41,1.71,2.31c0.61,0.91,1.15,1.87,1.63,2.88c0.48,1.02,0.79,1.99,0.94,2.92c0.15,0.93,0.01,1.72-0.43,2.35
				s-0.92,1.02-1.44,1.15c-0.53,0.13-1.04,0.11-1.53-0.05c-0.5-0.16-0.92-0.36-1.28-0.61c-0.88-0.6-1.85-1.46-2.93-2.58
				c-1.07-1.12-2.1-2.26-3.07-3.44c-0.98-1.17-1.79-2.19-2.43-3.04c0.21-1,0.56-1.87,1.07-2.6c0.23-0.33,0.47-0.61,0.74-0.82
				c0.26-0.21,0.52-0.33,0.77-0.35c0.57,0.79,1.31,1.76,2.22,2.9c0.91,1.14,1.86,2.26,2.86,3.34C51.51,75.65,52.4,76.47,53.19,77.01
				z"/>
		</g>
		<g>
			<path class="st2" d="M55.7,61.22c-0.11,0.76,0.08,1.89,0.55,3.4c0.18,0.6,0.38,1.21,0.59,1.82c0.35,0.93,0.73,1.89,1.16,2.87
				c0.69,1.62,1.33,2.96,1.91,4.01c-0.34,0.83-0.75,1.47-1.22,1.92c-0.65,0.61-1.37,0.89-2.16,0.84c-0.72-0.07-1.44-0.47-2.14-1.21
				c-0.83-0.87-1.84-2.27-3.05-4.2c-1.21-1.93-2.22-3.91-3.03-5.94c-0.2-0.81,0.24-1.73,1.29-2.77c0.55-0.52,1.13-0.83,1.75-0.93
				c0.32,1.38,1.05,3.18,2.18,5.39c1.14,2.21,2.16,3.83,3.07,4.86c0.55,0.54,0.91,0.73,1.08,0.57c-0.32-0.62-0.72-1.44-1.18-2.44
				c-0.47-1.01-0.95-2.2-1.45-3.58c-0.39-1.12-0.69-2.24-0.91-3.36c-0.25-1.2-0.32-2.31-0.22-3.32c0.1-1.01,0.46-1.82,1.09-2.42
				c0.38-0.36,0.82-0.58,1.32-0.66c0.5-0.08,0.98,0.13,1.44,0.62c0.33,0.35,0.85,1.26,1.58,2.73c1.5,2.96,2.76,4.99,3.8,6.08
				c0.41,0.39,0.71,0.49,0.91,0.3c0.22-0.21,0.29-0.7,0.2-1.45c-0.09-0.76-0.25-1.61-0.5-2.56c-0.24-0.95-0.5-1.85-0.78-2.7
				c-0.28-0.85-0.51-1.5-0.7-1.95c0.16,0.17,0.42,0.63,0.78,1.38c0.36,0.75,0.73,1.65,1.12,2.7c0.38,1.04,0.7,2.11,0.95,3.21
				c0.25,1.1,0.36,2.11,0.33,3.04c-0.03,0.93-0.29,1.63-0.79,2.1c-0.65,0.61-1.36,0.87-2.14,0.76c-0.75-0.1-1.45-0.49-2.11-1.18
				C59,67.63,57.43,65,55.7,61.22z"/>
		</g>
		<g>
			<path class="st2" d="M74.58,56.31c0.11,0.16,0.24,0.3,0.38,0.43c0.14,0.12,0.3,0.13,0.46,0.02c0.18-0.13,0.3-0.42,0.37-0.88
				c0.06-0.46,0.09-1.01,0.07-1.66c-0.05-1.15-0.17-2.34-0.35-3.55c-0.18-1.22-0.35-2.13-0.49-2.75c0.17,0.25,0.43,1.01,0.78,2.26
				c0.34,1.26,0.61,2.66,0.8,4.2c0.11,0.89,0.15,1.75,0.13,2.57c-0.02,0.82-0.13,1.56-0.33,2.2c-0.2,0.64-0.52,1.11-0.96,1.42
				c-0.62,0.43-1.21,0.61-1.74,0.54c-0.54-0.07-1.01-0.27-1.41-0.6c-0.41-0.33-0.73-0.67-0.97-1.02c-0.44-0.63-0.88-1.42-1.32-2.37
				c0.22,0.89,0.38,1.79,0.48,2.7c0.14,1.17,0.1,2.22-0.09,3.16c-0.16,0.82-0.51,1.42-1.06,1.8c-0.39,0.27-0.77,0.43-1.13,0.49
				c-0.36,0.06-0.7,0.04-1.01-0.04c-0.47-0.14-0.87-0.36-1.22-0.67c-0.34-0.31-0.61-0.59-0.79-0.85c-0.25-0.36-0.57-0.92-0.96-1.68
				c-0.39-0.75-0.79-1.62-1.19-2.59c-0.52-1.26-0.95-2.54-1.27-3.85c-0.28-1.13-0.38-2.17-0.31-3.11c0.03-0.51,0.14-0.97,0.31-1.37
				c0.18-0.4,0.44-0.73,0.79-0.97c0.65-0.45,1.39-0.72,2.2-0.81c0.81-0.09,1.61-0.04,2.4,0.16c-0.02-0.05-0.04-0.13-0.08-0.25
				c-0.04-0.12-0.07-0.24-0.11-0.38c-0.15-0.56-0.05-1.09,0.29-1.58c0.35-0.49,0.81-0.93,1.38-1.33c0.33-0.23,0.66-0.39,0.97-0.49
				c0.32-0.1,0.6-0.12,0.85-0.05c0.15,0.59,0.36,1.29,0.6,2.1c0.3,1.02,0.65,2.11,1.04,3.25c0.4,1.19,0.84,2.31,1.3,3.34
				C73.79,55.01,74.19,55.74,74.58,56.31z M67.48,50.57c-0.95-0.36-1.62-0.4-2.04-0.11c-0.34,0.24-0.46,0.75-0.34,1.55
				c0.13,0.97,0.44,2.07,0.92,3.31c0.31,0.87,0.65,1.69,1.01,2.47c0.69,1.46,1.15,2.34,1.37,2.67c0.12,0.18,0.26,0.34,0.42,0.48
				c0.15,0.14,0.31,0.16,0.46,0.05c0.19-0.13,0.28-0.49,0.27-1.07c-0.01-0.58-0.09-1.28-0.24-2.1c-0.22-1.18-0.49-2.39-0.81-3.63
				C68.05,52.47,67.71,51.26,67.48,50.57z"/>
		</g>
		<g>
			<path class="st2" d="M83.33,42.78c-0.38,0.66-0.63,1.79-0.76,3.36c-0.05,0.63-0.1,1.26-0.13,1.91c-0.02,1-0.02,2.03,0.01,3.1
				c0.04,1.76,0.14,3.24,0.28,4.43c-0.63,0.64-1.24,1.09-1.84,1.33c-0.83,0.33-1.6,0.32-2.32-0.02c-0.65-0.33-1.16-0.97-1.53-1.92
				c-0.44-1.11-0.87-2.79-1.27-5.03c-0.41-2.24-0.61-4.45-0.61-6.64c0.12-0.82,0.86-1.52,2.23-2.09c0.7-0.28,1.36-0.35,1.97-0.21
				c-0.22,1.4-0.21,3.34,0.02,5.82c0.23,2.47,0.58,4.36,1.04,5.65c0.31,0.71,0.57,1.02,0.79,0.93c-0.07-0.7-0.13-1.6-0.19-2.71
				c-0.06-1.11-0.07-2.4-0.02-3.86c0.06-1.18,0.19-2.33,0.4-3.46c0.22-1.21,0.56-2.26,1.03-3.17c0.47-0.9,1.11-1.52,1.91-1.84
				c0.49-0.19,0.98-0.23,1.47-0.12c0.49,0.11,0.86,0.48,1.11,1.11c0.18,0.44,0.33,1.48,0.45,3.12c0.29,3.31,0.71,5.66,1.27,7.06
				c0.23,0.51,0.48,0.72,0.74,0.61c0.28-0.11,0.53-0.54,0.73-1.28c0.2-0.74,0.36-1.59,0.49-2.56c0.13-0.97,0.22-1.9,0.28-2.8
				c0.06-0.89,0.08-1.58,0.08-2.06c0.09,0.22,0.16,0.74,0.21,1.57c0.06,0.83,0.07,1.81,0.04,2.92c-0.03,1.11-0.14,2.22-0.31,3.33
				c-0.18,1.11-0.45,2.09-0.82,2.94c-0.37,0.85-0.88,1.41-1.51,1.66c-0.83,0.33-1.59,0.3-2.27-0.09c-0.66-0.37-1.17-1-1.52-1.88
				C84.01,49.95,83.53,46.92,83.33,42.78z"/>
		</g>
		<g>
			<path class="st2" d="M94.68,51.74c-0.71-0.07-1.39-0.33-2.04-0.78c-0.44-0.32-0.84-0.79-1.19-1.41c-0.31-0.55-0.54-1.23-0.7-2.03
				c-0.18-0.9-0.24-2.2-0.17-3.91c0.07-1.5,0.3-2.94,0.7-4.33c0.31-1.06,0.85-1.93,1.6-2.6c0.57-0.51,1.3-0.86,2.19-1.03
				c1.04-0.21,2.04-0.1,2.98,0.31c1,0.45,1.61,1.23,1.83,2.35c0.12,0.6,0.1,1.31-0.05,2.12c-0.17,0.22-0.54,0.41-1.11,0.55
				c-0.62,0.12-1.18,0.14-1.66,0.05c0.11-0.66,0.17-1.3,0.18-1.92c0.01-0.53-0.02-0.97-0.1-1.35l-0.04-0.2
				c-0.09-0.41-0.24-0.6-0.45-0.58c-0.52,0.15-0.91,0.75-1.16,1.78c-0.3,1.21-0.47,2.54-0.52,4.01c-0.03,1.79,0.01,2.97,0.12,3.55
				c0.15,0.78,0.37,1.35,0.66,1.72c0.38,0.5,0.82,0.7,1.32,0.6c0.5-0.1,0.97-0.31,1.41-0.64c0.43-0.33,0.83-0.74,1.2-1.24
				c0.78-1.08,1.4-2.3,1.84-3.65c0.44-1.36,0.7-2.54,0.76-3.55c0.13,0.66,0.11,1.49-0.07,2.48c-0.18,1-0.49,2.15-0.93,3.46
				c-0.47,1.45-1.14,2.76-1.99,3.93c-0.79,1.09-1.82,1.82-3.07,2.18L96,51.77c0.65-0.13,1.21-0.16,1.69-0.09
				c0.48,0.07,0.89,0.19,1.22,0.38c0.42,0.25,0.75,0.56,0.98,0.92c0.23,0.36,0.37,0.71,0.44,1.04c0.11,0.56,0.07,1.11-0.11,1.65
				c-0.19,0.54-0.48,1.02-0.88,1.46c-0.9,0.94-1.98,1.53-3.24,1.78c-0.61,0.12-1.23,0.15-1.86,0.09c-0.63-0.06-1.22-0.25-1.77-0.57
				c1.04-0.21,1.97-0.49,2.77-0.85c0.64-0.29,1.12-0.65,1.43-1.09c0.34-0.43,0.45-0.96,0.32-1.58c-0.12-0.59-0.37-1.01-0.76-1.27
				c-0.28-0.2-0.57-0.32-0.9-0.37c-0.32-0.05-0.63-0.04-0.93,0.02c-0.05-0.04-0.08-0.1-0.09-0.19c-0.01-0.05-0.01-0.1-0.01-0.17
				c-0.02-0.17-0.01-0.35,0.03-0.53L94.68,51.74z"/>
		</g>
		<g>
			<path class="st2" d="M113.03,45.23c0.01,0.2,0.04,0.38,0.1,0.56c0.06,0.18,0.18,0.27,0.38,0.26c0.22-0.01,0.48-0.19,0.77-0.55
				c0.3-0.36,0.61-0.81,0.94-1.37c0.57-1.01,1.09-2.07,1.58-3.21c0.49-1.13,0.83-1.99,1.04-2.59c0.01,0.31-0.16,1.08-0.53,2.33
				c-0.37,1.25-0.88,2.58-1.54,3.99c-0.38,0.81-0.79,1.56-1.25,2.25c-0.45,0.69-0.93,1.25-1.44,1.69c-0.51,0.44-1.03,0.67-1.57,0.7
				c-0.76,0.04-1.35-0.12-1.77-0.46c-0.42-0.34-0.72-0.76-0.89-1.25c-0.17-0.49-0.26-0.95-0.28-1.38c-0.04-0.77,0.01-1.67,0.13-2.71
				c-0.28,0.87-0.62,1.72-1.02,2.55c-0.5,1.06-1.09,1.94-1.75,2.63c-0.57,0.61-1.19,0.94-1.85,0.97c-0.48,0.02-0.88-0.04-1.22-0.18
				s-0.62-0.33-0.83-0.57c-0.32-0.36-0.55-0.77-0.68-1.21c-0.13-0.44-0.2-0.82-0.22-1.14c-0.02-0.44,0-1.08,0.07-1.93
				c0.06-0.85,0.18-1.79,0.36-2.83c0.22-1.34,0.54-2.66,0.96-3.94c0.36-1.11,0.82-2.04,1.38-2.8c0.3-0.42,0.63-0.75,0.99-1
				c0.36-0.25,0.76-0.38,1.18-0.4c0.79-0.04,1.56,0.12,2.3,0.47c0.74,0.35,1.39,0.82,1.96,1.41c0.01-0.05,0.03-0.13,0.06-0.25
				c0.03-0.12,0.07-0.24,0.11-0.38c0.17-0.56,0.53-0.96,1.08-1.19c0.55-0.23,1.18-0.37,1.87-0.4c0.4-0.02,0.77,0.01,1.09,0.1
				c0.32,0.08,0.57,0.22,0.75,0.41c-0.18,0.58-0.38,1.29-0.6,2.1c-0.28,1.03-0.56,2.13-0.84,3.31c-0.29,1.23-0.51,2.4-0.66,3.52
				C113.06,43.72,113,44.55,113.03,45.23z M110.04,36.61c-0.61-0.8-1.17-1.19-1.67-1.17c-0.42,0.02-0.78,0.4-1.1,1.14
				c-0.4,0.89-0.72,1.99-0.97,3.3c-0.19,0.9-0.34,1.78-0.45,2.63c-0.18,1.6-0.26,2.6-0.25,2.99c0.01,0.22,0.04,0.43,0.1,0.63
				c0.06,0.2,0.18,0.29,0.36,0.29c0.23-0.01,0.5-0.26,0.79-0.76c0.3-0.5,0.6-1.13,0.9-1.91c0.44-1.12,0.85-2.29,1.23-3.51
				C109.52,38.52,109.87,37.31,110.04,36.61z"/>
		</g>
		<g>
			<path class="st2" d="M125.26,38.42c-0.6,0.37-1.2,1.22-1.82,2.53c-0.61,1.31-1.18,2.74-1.7,4.3c-0.52,1.56-0.92,2.89-1.21,4
				c-0.83,0.23-1.58,0.29-2.23,0.18c-0.89-0.15-1.59-0.54-2.1-1.17c-0.52-0.63-0.78-1.47-0.79-2.52c-0.01-1.19,0.2-2.87,0.64-5.01
				c0.44-2.15,1.05-4.17,1.84-6.05c0.41-0.65,1.36-0.86,2.85-0.64c0.76,0.13,1.4,0.41,1.92,0.85c-0.29,0.44-0.68,1.36-1.15,2.76
				c-0.48,1.4-0.92,2.9-1.31,4.49c-0.4,1.59-0.59,2.8-0.58,3.64c0,0.49,0.1,0.75,0.28,0.78c0.18-0.64,0.43-1.46,0.74-2.45
				c0.32-0.99,0.7-2.04,1.16-3.13c0.46-1.09,0.98-2.11,1.58-3.04c0.59-0.94,1.26-1.67,2.01-2.21c0.74-0.54,1.56-0.74,2.44-0.59
				c0.59,0.1,1.08,0.33,1.46,0.7c0.38,0.36,0.58,0.85,0.58,1.48c0,0.46-0.29,1.58-0.87,3.36c-1.02,3.21-1.52,5.31-1.51,6.28
				c0.01,0.57,0.14,0.88,0.41,0.93c0.19-0.64,0.44-1.45,0.75-2.45c0.26-0.86,0.58-1.74,0.95-2.65c0.59-1.41,1.18-2.58,1.78-3.52
				c0.6-0.93,1.27-1.67,2.01-2.21c0.74-0.54,1.55-0.74,2.44-0.59c0.59,0.1,1.1,0.35,1.54,0.77c0.35,0.35,0.52,0.82,0.53,1.42
				c0,0.39-0.2,1.2-0.6,2.42c-0.99,3.13-1.48,5.56-1.46,7.29c0,0.2,0.03,0.39,0.08,0.58c0.05,0.19,0.17,0.3,0.37,0.34
				c0.31,0.05,0.69-0.19,1.15-0.72c0.46-0.53,0.93-1.18,1.4-1.96c0.47-0.77,0.9-1.53,1.27-2.27c0.37-0.74,0.65-1.32,0.81-1.74
				c0,0.23-0.12,0.72-0.36,1.47c-0.25,0.75-0.58,1.6-1.02,2.54c-0.43,0.94-0.94,1.85-1.51,2.71c-0.58,0.87-1.19,1.57-1.85,2.11
				c-0.66,0.54-1.33,0.75-2.02,0.64c-0.76-0.13-1.35-0.4-1.76-0.83c-0.41-0.43-0.69-0.9-0.84-1.43c-0.15-0.52-0.23-1-0.23-1.43
				c-0.01-1.4,0.17-2.87,0.55-4.42c0.38-1.54,0.85-2.94,1.4-4.2c-0.59,0.38-1.19,1.22-1.8,2.53c-0.28,0.59-0.55,1.19-0.81,1.82
				c-0.31,0.79-0.61,1.61-0.9,2.48c-0.53,1.55-0.93,2.89-1.22,4c-0.82,0.23-1.56,0.29-2.21,0.18c-0.9-0.15-1.6-0.54-2.12-1.18
				c-0.52-0.64-0.78-1.48-0.79-2.51c-0.01-1.35,0.16-2.83,0.52-4.43C124.31,41.03,124.74,39.63,125.26,38.42z"/>
		</g>
		<g>
			<path class="st2" d="M149.93,44.98c-0.13,0.74-0.48,1.41-1.02,2.01c-0.47,0.52-1.03,0.9-1.68,1.14
				c-0.81,0.31-1.65,0.32-2.53,0.02c-0.55-0.19-0.99-0.56-1.33-1.12c-0.48,1.13-0.76,1.92-0.84,2.38c-0.13,0.69-0.14,1.27-0.04,1.72
				c0.19,0.69,0.54,1.12,1.06,1.3c0.78,0.27,1.55,0.28,2.32,0.06c0.74-0.2,1.44-0.55,2.13-1.04c0.6-0.43,1.16-0.93,1.69-1.49
				c0.83-0.89,1.52-1.78,2.06-2.67c-0.12,0.68-0.69,1.72-1.69,3.12c-0.51,0.67-1.1,1.32-1.77,1.94c-0.92,0.86-1.94,1.52-3.06,1.98
				c-1.2,0.5-2.44,0.55-3.72,0.17l-0.09-0.03c-1.19-0.41-2.15-1.18-2.88-2.33c-0.3-0.51-0.5-1.09-0.61-1.75
				c-0.11-0.66-0.09-1.39,0.06-2.2c0.17-0.93,0.62-2.16,1.35-3.7c0.59-1.16,1.29-2.21,2.12-3.13c0.47-0.5,1-0.89,1.6-1.15
				c0.93-0.44,2.03-0.45,3.28-0.02c0.91,0.31,1.73,0.82,2.46,1.52c0.42,0.44,0.75,0.94,0.96,1.49
				C150,43.76,150.05,44.35,149.93,44.98z M147.56,43.06l0.01-0.07c0.09-0.47,0.02-0.75-0.2-0.82c-0.24-0.08-0.5-0.06-0.76,0.08
				c-0.26,0.14-0.53,0.36-0.81,0.65c-0.44,0.48-0.86,1.08-1.28,1.79c-0.32,0.57-0.62,1.14-0.89,1.72c0.21,0.27,0.42,0.44,0.64,0.51
				c0.43,0.15,0.87,0.03,1.33-0.36c0.45-0.36,0.84-0.83,1.15-1.4C147.2,44.3,147.47,43.59,147.56,43.06z"/>
		</g>
		<g>
			<path class="st2" d="M159.49,51.61c-0.7,0.09-1.61,0.57-2.73,1.42c-0.45,0.33-0.9,0.68-1.34,1.05c-0.67,0.58-1.35,1.21-2.03,1.87
				c-1.12,1.09-2.03,2.06-2.71,2.9c-0.86-0.11-1.58-0.34-2.15-0.68c-0.79-0.47-1.33-1.09-1.6-1.88c-0.23-0.72-0.17-1.52,0.19-2.39
				c0.42-1.03,1.23-2.38,2.41-4.06c1.19-1.68,2.5-3.17,3.93-4.49c0.62-0.4,1.6-0.22,2.92,0.53c0.67,0.4,1.18,0.88,1.51,1.46
				c-1.07,0.67-2.34,1.84-3.8,3.52s-2.45,3.09-2.98,4.24c-0.25,0.67-0.27,1.07-0.06,1.19c0.41-0.47,0.96-1.07,1.64-1.78
				c0.69-0.72,1.53-1.5,2.52-2.34c0.81-0.67,1.66-1.25,2.55-1.76c0.94-0.55,1.87-0.91,2.79-1.08c0.92-0.17,1.77-0.02,2.54,0.43
				c0.47,0.28,0.84,0.65,1.1,1.11c0.27,0.46,0.28,0.98,0.05,1.56c-0.17,0.41-0.74,1.16-1.73,2.24c-1.97,2.23-3.22,3.98-3.74,5.27
				c-0.18,0.5-0.14,0.82,0.11,0.96c0.27,0.16,0.72,0.1,1.34-0.19c0.62-0.28,1.3-0.67,2.02-1.15c0.73-0.48,1.4-0.97,2.03-1.46
				c0.63-0.49,1.1-0.88,1.41-1.18c-0.08,0.2-0.38,0.57-0.88,1.12c-0.51,0.55-1.14,1.14-1.89,1.79c-0.75,0.64-1.55,1.23-2.4,1.76
				c-0.85,0.53-1.69,0.9-2.5,1.11c-0.82,0.21-1.53,0.14-2.14-0.22c-0.79-0.47-1.3-1.09-1.52-1.87c-0.22-0.75-0.16-1.54,0.18-2.36
				C155.26,56.49,156.91,54.27,159.49,51.61z"/>
		</g>
		<g>
			<path class="st2" d="M169.59,53.75l0.54-0.42c2.13-1.71,3.66-2.9,4.58-3.55c0.97,0.3,1.84,0.73,2.6,1.31
				c0.34,0.26,0.62,0.52,0.84,0.8c0.22,0.28,0.35,0.55,0.4,0.82c-1.22,0.84-2.89,2.08-5,3.74l-0.32,0.25
				c0.88,0.61,2.7,1.75,3.56,2.19c-0.39,0.3-1.02,0.28-1.89-0.05c-0.55-0.19-2.26-1.06-2.84-1.36c-1.65,1.32-3.05,2.66-4.57,3.99
				c-1.94,1.7-3.15,2.93-3.63,3.69c-0.09,0.15-0.17,0.31-0.21,0.48c-0.05,0.17,0.01,0.32,0.18,0.44c0.35,0.27,0.89,0.33,1.62,0.2
				c0.73-0.13,1.52-0.36,2.37-0.68c0.85-0.32,1.63-0.66,2.35-1.03c0.72-0.36,1.26-0.66,1.62-0.89c-0.13,0.2-0.5,0.53-1.11,0.98
				c-0.61,0.45-1.35,0.91-2.22,1.38c-0.87,0.47-1.8,0.88-2.78,1.22c-0.98,0.34-1.93,0.52-2.85,0.55c-0.92,0.03-1.7-0.2-2.33-0.69
				c-0.65-0.49-1.06-1-1.22-1.53c-0.17-0.53-0.19-1.03-0.07-1.51c0.12-0.47,0.28-0.87,0.49-1.2c0.59-0.92,1.94-2.31,4.06-4.18
				c1.44-1.28,3.08-2.7,4.53-3.9c-0.25-0.15-1.98-1.49-2.15-1.6c-0.2-0.38-0.19-0.79,0.02-1.22c0.06-0.12,0.12-0.23,0.19-0.33
				c0.17-0.26,0.36-0.46,0.58-0.59C167.39,51.5,169.15,53.33,169.59,53.75z"/>
		</g>
	</g>
	<path class="st1" d="M172.83,127.93c-1.24-0.48-10.05-3.6-11.14-3.36c-0.78,0.17-1.58,0.28-2.34,0.5
		c-1.01,0.49-1.13,1.72-1.59,2.71c-1.34,2.57-1.96,5.32-3.03,7.99c-1.64,3.27-2.96,6.79-5.45,9.55c-0.69,0.89-1.29,1.84-2,2.71
		c-1.37,1.7-2.94,3.22-4.51,4.73c-0.92,0.89-1.77,1.87-2.79,2.66c-0.25,0.2-0.5,0.4-0.74,0.61c-0.94,0.9-2.07,1.56-3.13,2.31
		c-1.37,1.08-2.94,1.83-4.51,2.56c-1.26,0.63-2.69,0.75-4,1.27c-1.49,0.28-2.91,0.87-4.44,0.99c-2.18,0.53-4.41,0.8-6.62,1.15
		c-1.76,0.31-3.56,0.13-5.34,0.18c-0.86,0.03-1.71-0.04-2.56-0.14c-0.88-0.08-1.76-0.09-2.64-0.16c-0.41-0.06-0.81-0.15-1.21-0.21
		c-0.08-0.01-0.26-0.03-0.34-0.04c-0.64-0.08-1.28-0.18-1.92-0.25c-0.21-0.01-0.63-0.02-0.83-0.03l0.01,0.04
		c-0.12,0.07-0.38,0.2-0.5,0.27l0.14-0.39c-1.62-0.22-3.23-0.58-4.76-1.15l-0.09-0.03c-0.96-0.3-1.9-0.64-2.83-1.02
		c-0.45-0.17-0.92-0.32-1.37-0.48c-0.35-0.12-0.69-0.27-1.03-0.4c-0.02-0.01-0.06-0.03-0.09-0.04c-0.89-0.4-1.81-0.73-2.71-1.11
		c-1.82-0.84-3.61-1.75-5.29-2.84c-1.99-1.26-3.71-2.89-5.31-4.6c-0.33-0.35-0.68-0.69-1-1.05c-1.47-1.78-2.9-3.61-4.38-5.38
		c1.64-0.5,3.41-0.51,4.99-1.2c0.48-4.08,1.42-8.07,2.15-12.11c-0.87-0.12-1.76-0.3-2.51-0.78c-0.99-0.55-1.47-1.62-2.03-2.54
		c-0.33-0.51-0.26-1.15-0.27-1.73c-1.82-0.43-3.66-0.77-5.44-1.36c-1.87-0.56-3.65-1.39-5.51-1.97c-2.87-1.21-5.69-2.55-8.59-3.7
		c-1.43-0.34-2.89-0.98-4.38-0.62c-1.62,0.26-2.79,1.63-3.47,3.03c-1.02,2.36-1.73,4.85-2.37,7.34c-0.84,2.66-1.85,5.28-2.93,7.85
		c-1.24,3.35-2.6,6.66-3.52,10.11c-0.73,3.58,0.54,7.41,2.97,10.08c1.57,1.68,3.94,2.18,6.14,2.4c2.48,0.1,5.19-0.46,7.04-2.22
		c1.48-1.1,2.62-2.59,3.71-4.06c1.34,2.96,3.22,5.62,5.35,8.06c5.91,7.1,13.51,12.78,21.94,16.54c6.29,2.67,13.12,3.59,19.87,4.18
		c2.3,0.19,4.6,0.12,6.9,0.04c-0.04-0.26-0.05-0.53-0.04-0.8c0.02-1.26,0.48-2.4,1.33-3.29c0.73-0.77,1.64-1.24,2.7-1.39
		c0.19-0.02,0.37-0.04,0.56-0.04c0.03,0,0.06,0,0.09,0c1.25,0.05,2.36,0.56,3.2,1.46c0.69,0.77,1.1,1.66,1.24,2.67
		c0.03,0.19,0.04,0.39,0.05,0.59c0,0.05,0,0.09,0,0.14c0,0.05-0.01,0.11-0.01,0.16c0.78-0.1,1.56-0.21,2.34-0.37
		c2.79-0.55,5.61-1.03,8.32-1.93c2.8-0.74,5.5-1.8,8.21-2.82c0.5-0.22,1-0.44,1.5-0.67c-0.45-0.46-0.78-0.93-0.88-1.3
		c-0.21-0.81,0.17-1.65,0.9-2.03c0.18-0.1,0.55-0.28,0.99-0.51c0.47-0.24,1.05-0.54,1.56-0.8c-1-2.62-1.7-4.53-2.08-5.68
		c-0.16-0.49-0.1-1.02,0.16-1.46c0.7-1.19,1.57-2.18,2.58-2.94c0.51-0.38,1.03-0.67,1.55-0.86c0.69-0.25,1.37-0.29,2.01-0.14
		c0.61,0.15,1.09,0.6,1.28,1.2c0.46,1.46,1.14,3.43,2.05,5.87c1.98-1.42,4.16-3.42,4.64-3.95c0.42-0.47,1.06-0.68,1.67-0.56
		c0.27,0.05,0.52,0.18,0.73,0.34c0.58-0.7,1.15-1.4,1.71-2.11c1.33-1.51,2.52-3.13,3.7-4.76c3.88-5.77,7.4-11.89,9.43-18.57
		c0.73-1.79,1.11-3.73,1.09-5.67C175.06,130.83,174.28,129,172.83,127.93z"/>
	<g>
		<g>
			<path class="st2" d="M124.05,190.75c0.16,1.16-1.84,10.16-6.38,14.91c-0.07,1.08-0.17,2.2-0.3,3.37
				c-0.14,1.17-0.35,2.31-0.64,3.42s-0.71,2.14-1.25,3.08c-0.54,0.94-1.25,1.73-2.12,2.37c-0.88,0.64-1.97,1.04-3.28,1.22
				c-0.57,0.08-1.13,0.06-1.68-0.06c-0.56-0.11-1.03-0.35-1.42-0.71c-0.39-0.36-0.63-0.88-0.73-1.56c-0.12-0.9-0.04-1.73,0.25-2.51
				c0.29-0.78,0.7-1.51,1.24-2.19c0.54-0.68,1.15-1.33,1.82-1.93c0.68-0.6,1.36-1.18,2.04-1.72c0.44-0.37,0.87-0.73,1.29-1.08
				l0.15-2.5c0.17-3.66,0.35-7.02,0.55-10.08c0.2-3.06,0.38-4.97,0.55-5.72c0.38-0.74,1.15-1.26,2.32-1.55
				c0.26-0.06,0.5-0.11,0.74-0.14c0.85-0.12,1.59-0.02,2.21,0.29c-0.43,2.11-0.77,4.65-1.01,7.63c-0.24,2.98-0.45,5.93-0.62,8.84
				C121.54,200.28,123.59,192.79,124.05,190.75z M112.76,208.79c-0.15,0.15-0.31,0.3-0.48,0.47c-0.6,0.56-1.2,1.17-1.82,1.84
				c-0.61,0.67-1.11,1.39-1.49,2.16c-0.38,0.77-0.51,1.58-0.4,2.43c0.05,0.34,0.16,0.66,0.35,0.93c0.18,0.28,0.49,0.39,0.92,0.33
				c0.57-0.08,1.02-0.42,1.38-1.03c0.35-0.61,0.63-1.34,0.84-2.18c0.21-0.84,0.36-1.68,0.46-2.52c0.1-0.83,0.17-1.54,0.22-2.12
				L112.76,208.79z M117.1,185.06c-0.8-0.02-1.47-0.31-1.99-0.89c-0.43-0.45-0.68-0.99-0.77-1.62c-0.02-0.17-0.03-0.33-0.03-0.5
				c0.01-0.84,0.29-1.55,0.83-2.11c0.45-0.48,1.01-0.77,1.65-0.85c0.11-0.01,0.22-0.02,0.33-0.02c0.79,0.03,1.45,0.33,1.97,0.89
				c0.43,0.48,0.69,1.04,0.78,1.69c0.02,0.14,0.03,0.28,0.04,0.44c-0.02,0.86-0.3,1.57-0.83,2.13c-0.46,0.47-1,0.74-1.62,0.83
				C117.35,185.05,117.23,185.06,117.1,185.06z"/>
		</g>
		<g>
			<path class="st2" d="M137.45,198.08c0.05,0.22,0.13,0.42,0.24,0.61c0.11,0.19,0.27,0.26,0.49,0.2c0.34-0.08,0.68-0.52,1.02-1.32
				c0.34-0.8,0.66-1.74,0.96-2.81c0.3-1.07,0.55-2.11,0.75-3.1c0.2-0.99,0.34-1.76,0.41-2.31c0.06,0.26,0.06,0.86,0,1.8
				c-0.06,0.95-0.2,2.04-0.41,3.29c-0.21,1.25-0.51,2.48-0.88,3.7c-0.38,1.22-0.84,2.28-1.4,3.18s-1.21,1.44-1.97,1.63
				c-0.84,0.2-1.53,0.16-2.07-0.13c-0.54-0.29-0.97-0.69-1.27-1.21c-0.3-0.51-0.51-1.01-0.63-1.48c-0.2-0.81-0.33-1.77-0.4-2.89
				c-0.24,1.2-0.54,2.36-0.9,3.47c-0.36,1.11-0.79,2.06-1.3,2.84c-0.51,0.78-1.1,1.25-1.77,1.42c-0.93,0.23-1.75,0.11-2.46-0.36
				c-0.71-0.46-1.2-1.29-1.49-2.46c-0.24-0.99-0.41-2.43-0.5-4.32c-0.09-1.9-0.13-3.76-0.1-5.59c0.03-1.83,0.12-3.23,0.27-4.2
				c0.26-0.68,0.9-1.14,1.92-1.39l0.2-0.05c1.13-0.25,2.12-0.21,2.99,0.09c-0.04,0.68-0.07,1.41-0.11,2.2
				c-0.11,1.57-0.18,3.26-0.22,5.06c-0.04,1.8,0.03,3.62,0.22,5.45l0.13,0.53c0.19,0.73,0.42,1.06,0.69,0.99
				c0.26-0.06,0.55-0.69,0.89-1.89c0.32-1.15,0.59-2.4,0.79-3.74c0.22-1.44,0.4-2.93,0.55-4.47c0.13-1.48,0.23-2.71,0.3-3.7
				l0.09-1.05c0.92-0.68,1.88-1.14,2.88-1.39c0.43-0.11,0.84-0.15,1.23-0.13c0.38,0.02,0.7,0.12,0.94,0.29
				c-0.12,1.1-0.23,2.48-0.34,4.14s-0.15,3.33-0.14,5.01C137.06,195.66,137.2,197.03,137.45,198.08z"/>
		</g>
		<g>
			<path class="st2" d="M146.83,182.81c0.24,0.52,0.34,1.04,0.31,1.56c-0.03,0.52-0.2,0.85-0.5,0.99c0.02-0.44-0.08-0.87-0.27-1.3
				c-0.14-0.3-0.34-0.55-0.6-0.74c-0.26-0.19-0.57-0.21-0.93-0.05c-0.28,0.13-0.47,0.36-0.58,0.69c-0.11,0.33-0.04,0.76,0.19,1.28
				c0.36,0.8,0.8,1.52,1.31,2.16c0.51,0.64,1.02,1.25,1.55,1.84c1.58-2.34,3.19-3.91,4.85-4.7c-1.5,1.21-2.93,2.98-4.3,5.31
				c0.41,0.47,0.82,0.95,1.21,1.44c0.46,0.6,0.85,1.26,1.18,1.98c0.82,1.78,0.97,3.44,0.48,4.96c-0.5,1.52-1.44,2.6-2.82,3.23
				c-0.75,0.33-1.45,0.37-2.08,0.12c-0.61-0.2-1.11-0.69-1.51-1.49c-0.79-1.72-0.69-3.85,0.3-6.38c-0.17-0.2-0.34-0.39-0.52-0.59
				c-0.58-0.64-1.15-1.3-1.69-1.99c-0.54-0.69-1.01-1.45-1.38-2.27c-0.54-1.18-0.76-2.24-0.66-3.17c0.1-0.94,0.4-1.74,0.91-2.39
				c0.51-0.65,1.09-1.13,1.74-1.43c0.75-0.34,1.49-0.45,2.22-0.31C145.97,181.68,146.5,182.1,146.83,182.81z M146.69,199.94
				c0.39-0.18,0.57-0.61,0.54-1.3c-0.03-0.69-0.17-1.3-0.41-1.83c-0.37-0.81-0.85-1.57-1.45-2.27c-0.41,1.87-0.38,3.33,0.09,4.36
				C145.89,199.77,146.3,200.12,146.69,199.94z"/>
		</g>
		<g>
			<path class="st2" d="M146.73,172.77l0.15-0.07c-1.26-3.26-2.17-5.72-2.62-7.09c0.58-0.99,1.28-1.79,2.11-2.41
				c0.37-0.28,0.73-0.48,1.09-0.6c0.36-0.13,0.68-0.15,0.98-0.08c0.57,1.8,1.45,4.31,2.66,7.52l0.18,0.49
				c2.44-1.26,6.17-4.65,6.88-5.44c0.42,1.17-2.26,4.4-6.37,7.49c0.97,2.52,2.83,7.42,3.85,9.8c1.29,3.03,2.28,5,2.97,5.91
				c0.13,0.18,0.28,0.33,0.45,0.47c0.17,0.13,0.34,0.13,0.52,0c0.38-0.28,0.6-0.88,0.65-1.79c0.06-0.91,0.03-1.93-0.09-3.06
				c-0.12-1.13-0.27-2.2-0.46-3.2c-0.19-1-0.37-1.77-0.52-2.3c0.18,0.25,0.43,0.82,0.75,1.73c0.32,0.91,0.61,1.98,0.88,3.21
				c0.27,1.23,0.45,2.49,0.55,3.78c0.1,1.29,0.04,2.48-0.18,3.55c-0.22,1.08-0.67,1.87-1.36,2.39c-0.7,0.53-1.36,0.76-1.97,0.71
				c-0.61-0.05-1.16-0.26-1.63-0.62c-0.48-0.36-0.86-0.73-1.15-1.12c-0.83-1.1-1.95-3.32-3.38-6.64c-0.98-2.26-3.1-7.9-3.99-10.14
				c-0.23,0.23-2.25,1.12-2.42,1.26c-0.46,0.05-2.24-1.47-2.32-1.79C143.52,174.43,146.17,173.09,146.73,172.77z"/>
		</g>
	</g>
</g>
</svg>
